<svg t="1610801377301" class="icon" viewBox="0 0 1024 1024" version="1.1" xmlns="http://www.w3.org/2000/svg" p-id="2684" width="200" height="200"><path d="M485.668571 4.388571c27.645074 0 49.737143 24.064 49.737143 53.394286 0 14.19264-5.149257 39.375726-12.50304 60.086857l-0.589531 1.6384C512.652434 146.077989 501.028571 162.377143 485.668571 162.377143s-26.983863-16.299154-36.644571-42.869029l-0.589531-1.6384C441.079223 97.158583 435.931429 71.975497 435.931429 57.782857 435.931429 28.452571 458.023497 4.388571 485.668571 4.388571z m0 17.554286c-17.598171 0-32.182857 15.886629-32.182857 35.84 0 11.979337 4.758674 35.251931 11.490743 54.212023 3.711269 10.452114 7.821897 19.134171 11.958857 25.092389C480.6656 142.45888 483.825371 144.822857 485.668571 144.822857c1.8432 0 5.002971-2.363977 8.733258-7.735588 4.13696-5.956754 8.247589-14.640274 11.958857-25.092389C513.092754 93.034789 517.851429 69.762194 517.851429 57.782857c0-19.953371-14.584686-35.84-32.182858-35.84zM503.638309 687.678903l-3.540115 23.037074c-13.427566 86.893714-22.571886 140.189989-27.337874 159.449966a8.777143 8.777143 0 1 0 17.03936 4.217417l0.32768-1.345829 0.503223-2.153325c5.566171-24.298057 15.652571-84.323474 30.360137-180.55168a8.777143 8.777143 0 0 0-17.352411-2.653623z" fill="#91000A" p-id="2685"></path><path d="M539.48416 115.211703l327.2704 196.644571c11.740891 16.439589 3.483063 48.170423-24.77056 95.192503-28.253623 47.020617-52.393691 69.207771-72.420206 66.561463l-327.2704-196.644571c-12.576183-16.941349-4.736731-48.923794 23.516892-95.945875 28.253623-47.020617 52.812069-68.957623 73.673874-65.808091z" fill="#D8000F" p-id="2686"></path><path d="M539.48416 115.211703l327.2704 196.644571c11.740891 16.439589 3.483063 48.170423-24.77056 95.192503-28.253623 47.020617-52.393691 69.207771-72.420206 66.561463l-327.2704-196.644571c-12.576183-16.941349-4.736731-48.923794 23.516892-95.945875 28.253623-47.020617 52.812069-68.957623 73.673874-65.808091z" fill="#D8000F" p-id="2687"></path><path d="M465.810286 181.019794c4.297874-7.151909 8.50944-13.723063 12.63616-19.714925-18.692389 35.992137-22.706469 61.170834-12.043703 75.536091l327.2704 196.644571c16.980846 2.244023 36.919589-13.366126 59.814766-46.830445-3.371886 6.442423-7.206034 13.241783-11.503909 20.392228-28.253623 47.02208-52.393691 69.210697-72.420206 66.562926l-327.2704-196.644571c-12.576183-16.941349-4.736731-48.923794 23.516892-95.945875z" fill="#C40714" p-id="2688"></path><path d="M513.695451 319.552366l97.192229-161.755429 17.554286 10.5472-97.192229 161.755429z" fill="#FFE400" p-id="2689"></path><path d="M513.695451 319.552366l24.107886-40.126172 17.555749 10.5472-24.109349 40.126172z" fill="#FFA700" p-id="2690"></path><path d="M583.2192 318.124617l269.976137 269.9776c7.41376 18.7904-8.27392 47.582354-47.064503 86.371474-38.78912 38.790583-67.581074 54.478263-86.371474 47.064503L449.78176 451.562057c-8.104229-19.482331 7.241143-48.618057 46.030263-87.407177 38.78912-38.790583 67.924846-54.133029 87.405714-46.030263z" fill="#D8000F" p-id="2691"></path><path d="M583.2192 318.124617l269.976137 269.9776c7.41376 18.7904-8.27392 47.582354-47.064503 86.371474-38.78912 38.790583-67.581074 54.478263-86.371474 47.064503L449.78176 451.562057c-8.104229-19.482331 7.241143-48.618057 46.030263-87.407177 38.78912-38.790583 67.924846-54.133029 87.405714-46.030263z" fill="#D8000F" p-id="2692"></path><path d="M495.812023 364.15488c5.899703-5.899703 11.577051-11.258149 17.02912-16.072411-26.843429 30.401097-36.828891 53.859474-29.959314 70.378057L752.859429 688.438126c15.93344 6.285897 39.05536-4.037486 69.36576-30.968686-4.828891 5.435977-10.194651 11.103086-16.094355 17.004251-38.78912 38.790583-67.581074 54.478263-86.371474 47.064503L449.78176 451.562057c-8.104229-19.482331 7.241143-48.618057 46.030263-87.407177z" fill="#C40714" p-id="2693"></path><path d="M508.761234 510.1568l133.435977-133.43744 14.482286 14.480823-133.43744 133.43744z" fill="#FFE400" p-id="2694"></path><path d="M508.761234 510.1568l33.100069-33.101531 14.482286 14.482285-33.101532 33.100069z" fill="#FFA700" p-id="2695"></path><path d="M579.067611 568.984137l245.420618 292.480732c5.747566 19.366766-12.3904 46.679771-54.413898 81.941942-42.023497 35.260709-72.070583 48.381074-90.145645 39.358172L434.509531 690.284251c-6.375131-20.114286 11.449783-47.80032 53.47328-83.061028 42.023497-35.262171 72.385097-48.008046 91.0848-38.239086z" fill="#D8000F" p-id="2696"></path><path d="M579.067611 568.984137l245.420618 292.480732c5.747566 19.366766-12.3904 46.679771-54.413898 81.941942-42.023497 35.260709-72.070583 48.381074-90.145645 39.358172L434.509531 690.284251c-6.375131-20.114286 11.449783-47.80032 53.47328-83.061028 42.023497-35.262171 72.385097-48.008046 91.0848-38.239086z" fill="#D8000F" p-id="2697"></path><path d="M487.982811 607.22176c6.392686-5.362834 12.51328-10.204891 18.366172-14.526171-29.391726 27.94496-41.384229 50.445166-35.980434 67.499154L715.790629 952.674011c15.324891 7.650743 39.258697-0.617326 71.801417-24.804205-5.285303 4.994194-11.125029 10.172709-17.516252 15.535543-42.023497 35.262171-72.070583 48.382537-90.145645 39.359634L434.509531 690.284251c-6.375131-20.114286 11.449783-47.80032 53.47328-83.061028z" fill="#C40714" p-id="2698"></path><path d="M488.156891 753.795657l144.559543-121.300114 13.164252 15.689143-144.559543 121.300114z" fill="#FFE400" p-id="2699"></path><path d="M488.156891 753.795657l35.86048-30.089508 13.164252 15.689142-35.86048 30.089509z" fill="#FFA700" p-id="2700"></path><path d="M442.243657 154.284617L172.26752 424.262217c-7.41376 18.7904 8.27392 47.582354 47.064503 86.371474 38.78912 38.790583 67.581074 54.478263 86.371474 47.064503l269.9776-269.976137c8.104229-19.482331-7.241143-48.618057-46.030263-87.407177-38.78912-38.790583-67.924846-54.133029-87.405714-46.030263z" fill="#D8000F" p-id="2701"></path><path d="M442.243657 154.284617L172.26752 424.262217c-7.41376 18.7904 8.27392 47.582354 47.064503 86.371474 38.78912 38.790583 67.581074 54.478263 86.371474 47.064503l269.9776-269.976137c8.104229-19.482331-7.241143-48.618057-46.030263-87.407177-38.78912-38.790583-67.924846-54.133029-87.405714-46.030263z" fill="#D8000F" p-id="2702"></path><path d="M529.650834 200.31488c-5.899703-5.899703-11.577051-11.258149-17.02912-16.072411 26.843429 30.401097 36.828891 53.859474 29.959315 70.378057L272.603429 524.598126c-15.93344 6.285897-39.05536-4.037486-69.36576-30.968686 4.828891 5.435977 10.194651 11.103086 16.094354 17.004251 38.78912 38.790583 67.581074 54.478263 86.371474 47.064503l269.9776-269.976137c8.104229-19.482331-7.241143-48.618057-46.030263-87.407177z" fill="#C40714" p-id="2703"></path><path d="M516.701623 346.3168l-133.435977-133.43744-14.482286 14.480823 133.43744 133.43744z" fill="#FFE400" p-id="2704"></path><path d="M516.701623 346.3168l-33.100069-33.101531-14.482285 14.482285 33.101531 33.100069z" fill="#FFA700" p-id="2705"></path><path d="M459.543406 365.958583l-190.902857 330.652526c-2.296686 20.0704 20.308846 43.819886 67.816594 71.248457s79.377554 35.130514 95.61088 23.105828l190.902857-330.652525c2.783817-20.914469-19.577417-45.085257-67.085166-72.513829s-79.621851-34.709211-96.342308-21.840457z" fill="#D8000F" p-id="2706"></path><path d="M459.543406 365.958583l-190.902857 330.652526c-2.296686 20.0704 20.308846 43.819886 67.816594 71.248457s79.377554 35.130514 95.61088 23.105828l190.902857-330.652525c2.783817-20.914469-19.577417-45.085257-67.085166-72.513829s-79.621851-34.709211-96.342308-21.840457z" fill="#D8000F" p-id="2707"></path><path d="M555.885714 387.797577c-7.226514-4.172069-14.096091-7.877486-20.608731-11.117714 33.796389 22.418286 49.514789 42.493074 47.153737 60.225828L391.527863 767.561143c-13.764023 10.196114-38.770103 6.209829-75.01824-11.96032 6.070857 4.000914 12.721006 8.088137 19.94752 12.258743 47.507749 27.428571 79.377554 35.131977 95.61088 23.107291l190.902857-330.652526c2.783817-20.914469-19.577417-45.085257-67.085166-72.513828z" fill="#C40714" p-id="2708"></path><path d="M581.166811 532.175726l-163.427474-94.354286-10.24 17.73568 163.427474 94.354286z" fill="#FFE400" p-id="2709"></path><path d="M581.166811 532.175726l-40.54016-23.405715-10.24 17.73568 40.54016 23.405715z" fill="#FFA700" p-id="2710"></path><path d="M462.649051 744.853211c28.135131 58.743954 67.013486 77.060389 116.635063 54.946378-48.972069 53.344549-51.115154 81.687406-0.885028 137.235017-59.280823-29.1328-93.147429-15.471177-101.60128 40.983405-11.446857-54.903954-52.444891-69.475474-122.995566-43.71456 31.787886-34.046537 79.996343-75.53024 8.788846-119.38816 74.570606 10.174171 106.092251-11.897417 100.059428-70.06208z" fill="#FFA700" p-id="2711"></path><path d="M472.889051 788.738926c21.307977 29.486811 56.773486 33.174674 106.395063 11.060663-48.972069 53.344549-51.115154 81.687406-0.885028 137.235017-59.280823-29.1328-93.147429-15.471177-101.60128 40.983405 0.646583-60.708571-23.427657-85.477669-72.22272-74.307291 31.786423-16.979383 24.492617-56.562834 7.671223-69.34528 30.999406 11.17184 64.551497-4.334446 60.642742-45.626514z" fill="#FFE400" p-id="2712"></path></svg>