<svg t="1614604798958" class="icon" viewBox="0 0 1024 1024" version="1.1" xmlns="http://www.w3.org/2000/svg" p-id="2610" width="200" height="200"><path d="M548.2 756.9c-1.9 0-3.8-1.1-4.7-2.9-10.4-21.5-22-41.3-33.2-60.3-37.4-63.6-69.7-118.5-9.9-178.3 56.2-56.3 22.4-215.7 22.1-217.3-0.6-2.8 1.2-5.5 4-6.1 2.8-0.6 5.5 1.2 6.2 4 1.5 6.8 35.4 166.5-24.9 226.8-54.1 54.1-26.6 100.9 11.5 165.8 11.3 19.2 23 39.1 33.6 61.1 1.2 2.6 0.2 5.7-2.4 6.9-0.8 0.1-1.6 0.3-2.3 0.3z" fill="#FA7268" p-id="2611"></path><path d="M511.8 197.7c0 9.3-3.8 17.6-9.8 23.7-6.1 6.1-14.4 9.8-23.7 9.8s-17.6-3.8-23.7-9.8-9.8-14.4-9.8-23.7 0.6-20.7 6.7-26.8c6.1-6.1 17.5-6.7 26.8-6.7s17.6 3.8 23.7 9.8c6.1 6 9.8 14.4 9.8 23.7zM552 197.7c0 9.3 3.8 17.6 9.8 23.7 6.1 6.1 14.4 9.8 23.7 9.8s17.6-3.8 23.7-9.8 9.8-14.4 9.8-23.7-0.6-20.7-6.7-26.8c-6.1-6.1-17.5-6.7-26.8-6.7s-17.6 3.8-23.7 9.8c-6.1 6-9.8 14.4-9.8 23.7z" fill="#DE5349" p-id="2612"></path><path d="M464.9 257.9a80.4 73.7 0 1 0 160.8 0 80.4 73.7 0 1 0-160.8 0Z" fill="#DE5349" p-id="2613"></path><path d="M451.5 257.9a87.1 79.8 0 1 0 174.2 0 87.1 79.8 0 1 0-174.2 0Z" fill="#FA7268" p-id="2614"></path><path d="M481.7 274.7a40.2 26.8 0 1 0 80.4 0 40.2 26.8 0 1 0-80.4 0Z" fill="#DE5349" p-id="2615"></path><path d="M506.8 276.3m-5.2 0a5.2 5.2 0 1 0 10.4 0 5.2 5.2 0 1 0-10.4 0Z" fill="#FA7268" p-id="2616"></path><path d="M526.656559 281.458659a5.2 5.2 0 1 0 1.666169-10.265665 5.2 5.2 0 1 0-1.666169 10.265665Z" fill="#FA7268" p-id="2617"></path><path d="M340.1 425.3l152.8-65.6c0.9-0.4 1.8-0.6 2.7-0.7 1-0.1 2-0.1 3 0.1 1.1 0.2 2.2 0.5 3.3 0.9 1.2 0.4 2.4 1 3.6 1.8 3.1 1.9 6.1 4.5 8.9 7.8 2.8 3.2 5.3 7 7.5 11.1s3.9 8.5 5.2 12.9c1.2 4.4 1.9 8.8 2 13 0 2.2-0.1 4.2-0.5 6.1s-0.8 3.4-1.5 4.9c-0.6 1.4-1.4 2.6-2.3 3.6-0.9 1-1.9 1.7-3 2.3l-149.7 72.3c0.8-0.4 1.5-1 2-1.9 0.5-0.9 1-2 1.3-3.3 0.3-1.4 0.4-3 0.4-4.8 0-1.8-0.2-3.9-0.6-6.2-0.7-4.3-1.9-9-3.5-13.8-1.6-4.8-3.7-9.6-6-14.2s-4.9-8.9-7.5-12.7c-2.6-3.8-5.4-7-8.1-9.4-1.1-1-2.1-1.7-3-2.4-1-0.6-1.9-1.1-2.7-1.4-0.8-0.3-1.6-0.5-2.3-0.5-0.7-0.2-1.4-0.1-2 0.1z" fill="#FA7268" p-id="2618"></path><path d="M360.6 490.5c-2.6-2.5-5.1-5.7-7.6-9.4-2.4-3.6-4.7-7.6-6.8-11.8-2.1-4.2-4-8.6-5.5-13s-2.8-8.8-3.5-12.9c-0.8-4.2-1-7.7-0.8-10.5 0.2-2.9 1-5 2.1-6.3 1.1-1.3 2.7-1.9 4.7-1.4 2 0.4 4.3 1.8 7 4.1 2.7 2.4 5.4 5.6 8.1 9.4 2.7 3.8 5.2 8.1 7.5 12.7s4.3 9.4 6 14.2c1.6 4.8 2.8 9.4 3.5 13.8 0.7 4.3 0.7 7.8 0.3 10.5-0.5 2.6-1.4 4.5-2.8 5.4-1.4 0.9-3.1 1-5.2 0.3-2.1-0.9-4.4-2.6-7-5.1z" fill="#DE5349" p-id="2619"></path><path d="M298.8 549.3l152.8-65.6c0.9-0.4 1.8-0.6 2.7-0.7 1-0.1 2-0.1 3 0.1 1.1 0.2 2.2 0.5 3.3 0.9 1.2 0.4 2.4 1 3.6 1.8 3.1 1.9 6.1 4.5 8.9 7.8 2.8 3.2 5.3 7 7.5 11.1s3.9 8.5 5.2 12.9c1.2 4.4 1.9 8.8 2 13 0 2.2-0.1 4.2-0.5 6.1s-0.8 3.4-1.5 4.8c-0.6 1.4-1.4 2.6-2.3 3.6-0.9 1-1.9 1.7-3 2.3l-149.7 72.3c0.8-0.4 1.5-1 2-1.9 0.5-0.9 1-2 1.3-3.3 0.3-1.4 0.4-3 0.4-4.8 0-1.8-0.2-3.9-0.6-6.2-0.7-4.3-1.9-9-3.5-13.8-1.6-4.8-3.7-9.6-6-14.2s-4.9-8.9-7.5-12.7c-2.6-3.8-5.4-7-8.1-9.4-1.1-1-2.1-1.7-3-2.4-1-0.6-1.9-1.1-2.7-1.4-0.8-0.3-1.6-0.5-2.3-0.5-0.8-0.1-1.4 0-2 0.2z" fill="#FA7268" p-id="2620"></path><path d="M319.2 614.5c-2.6-2.5-5.1-5.7-7.6-9.3-2.4-3.6-4.7-7.6-6.8-11.8-2.1-4.2-4-8.6-5.5-13s-2.8-8.8-3.5-12.9c-0.8-4.2-1-7.7-0.8-10.5 0.2-2.8 1-5 2.1-6.3 1.1-1.3 2.7-1.8 4.7-1.4 2 0.4 4.3 1.8 7 4.1 2.7 2.4 5.4 5.6 8.1 9.4 2.7 3.8 5.2 8.1 7.5 12.7s4.3 9.4 6 14.2c1.6 4.8 2.8 9.4 3.5 13.8 0.7 4.3 0.7 7.8 0.3 10.5-0.5 2.6-1.4 4.5-2.8 5.4-1.4 0.9-3.1 1-5.2 0.3-2-1-4.4-2.7-7-5.2z" fill="#DE5349" p-id="2621"></path><path d="M288.5 683.7l152.8-65.6c0.9-0.4 1.8-0.6 2.7-0.7s2-0.1 3 0.1c1.1 0.2 2.2 0.5 3.3 0.9 1.2 0.4 2.4 1 3.6 1.8 3.1 1.9 6.1 4.5 8.9 7.8 2.8 3.2 5.3 7 7.5 11.1s3.9 8.5 5.2 12.9c1.2 4.4 1.9 8.8 2 13 0 2.2-0.1 4.2-0.5 6.1s-0.8 3.4-1.5 4.8c-0.6 1.4-1.4 2.6-2.3 3.6-0.9 1-1.9 1.7-3 2.3l-149.7 72.3c0.8-0.4 1.5-1 2-1.9 0.5-0.9 1-2 1.3-3.3 0.3-1.4 0.4-3 0.4-4.8 0-1.8-0.2-3.9-0.6-6.2-0.7-4.3-1.9-9-3.5-13.8-1.6-4.8-3.7-9.6-6-14.2s-4.9-8.9-7.5-12.7c-2.6-3.8-5.4-7-8.1-9.4-1.1-1-2.1-1.7-3-2.4-1-0.6-1.9-1.1-2.7-1.4-0.8-0.3-1.6-0.5-2.3-0.5-0.8-0.2-1.4-0.1-2 0.2z" fill="#FA7268" p-id="2622"></path><path d="M308.9 748.8c-2.6-2.5-5.1-5.7-7.6-9.3-2.4-3.6-4.7-7.6-6.8-11.8-2.1-4.2-4-8.6-5.5-13s-2.8-8.8-3.5-12.9c-0.8-4.2-1-7.7-0.8-10.5 0.2-2.8 1-5 2.1-6.3 1.1-1.3 2.7-1.8 4.7-1.4 2 0.4 4.3 1.8 7 4.1 2.7 2.4 5.4 5.6 8.1 9.4 2.7 3.8 5.2 8.1 7.5 12.7s4.3 9.4 6 14.2c1.6 4.8 2.8 9.4 3.5 13.8 0.7 4.3 0.7 7.8 0.3 10.5-0.5 2.6-1.4 4.5-2.8 5.4-1.4 0.9-3.1 1-5.2 0.3-2.1-1-4.4-2.6-7-5.2z" fill="#DE5349" p-id="2623"></path><path d="M735.5 425.3l-152.8-65.6c-0.8-0.4-1.8-0.6-2.7-0.7-1-0.1-2-0.1-3 0.1-1.1 0.2-2.2 0.5-3.3 0.9-1.2 0.4-2.3 1-3.6 1.8-3.1 1.9-6.1 4.5-8.9 7.8-2.8 3.2-5.3 7-7.5 11.1s-3.9 8.5-5.2 12.9c-1.2 4.4-1.9 8.8-2 13 0 2.2 0.1 4.2 0.5 6.1s0.8 3.4 1.5 4.9c0.6 1.4 1.4 2.6 2.3 3.6s1.9 1.7 3 2.3l149.7 72.3c-0.8-0.4-1.5-1-2-1.9-0.5-0.9-1-2-1.3-3.3-0.3-1.4-0.4-3-0.4-4.8 0-1.8 0.2-3.9 0.6-6.2 0.7-4.3 1.9-9 3.5-13.8 1.6-4.8 3.7-9.6 6-14.2s4.8-8.9 7.5-12.7c2.6-3.8 5.4-7 8.1-9.4 1.1-1 2.1-1.7 3-2.4 1-0.6 1.8-1.1 2.7-1.4 0.8-0.3 1.6-0.5 2.3-0.5 0.8-0.2 1.5-0.1 2 0.1z" fill="#FA7268" p-id="2624"></path><path d="M715.1 490.5c2.6-2.5 5.1-5.7 7.6-9.4 2.4-3.6 4.7-7.6 6.8-11.8 2.1-4.2 4-8.6 5.5-13s2.8-8.8 3.5-12.9c0.8-4.2 1-7.7 0.8-10.5-0.2-2.9-1-5-2.1-6.3-1.2-1.3-2.7-1.9-4.7-1.4-2 0.4-4.3 1.8-7 4.1-2.7 2.4-5.4 5.6-8.1 9.4-2.7 3.8-5.2 8.1-7.5 12.7s-4.3 9.4-6 14.2c-1.6 4.8-2.8 9.4-3.5 13.8-0.7 4.3-0.7 7.8-0.3 10.5 0.5 2.6 1.4 4.5 2.8 5.4 1.3 0.9 3.1 1 5.2 0.3 2.1-0.9 4.4-2.6 7-5.1z" fill="#DE5349" p-id="2625"></path><path d="M725.2 549.3l-152.8-65.6c-0.8-0.4-1.8-0.6-2.7-0.7-1-0.1-2-0.1-3 0.1-1.1 0.2-2.2 0.5-3.3 0.9-1.2 0.4-2.3 1-3.6 1.8-3.1 1.9-6.1 4.5-8.9 7.8-2.8 3.2-5.3 7-7.5 11.1s-3.9 8.5-5.2 12.9c-1.2 4.4-1.9 8.8-2 13 0 2.2 0.1 4.2 0.5 6.1s0.8 3.4 1.5 4.8c0.6 1.4 1.4 2.6 2.3 3.6 0.9 1 1.9 1.7 3 2.3l149.7 72.3c-0.8-0.4-1.5-1-2-1.9-0.5-0.9-1-2-1.3-3.3-0.3-1.4-0.4-3-0.4-4.8 0-1.8 0.2-3.9 0.6-6.2 0.7-4.3 1.9-9 3.5-13.8 1.6-4.8 3.7-9.6 6-14.2s4.8-8.9 7.5-12.7c2.6-3.8 5.4-7 8.1-9.4 1.1-1 2.1-1.7 3-2.4 1-0.6 1.8-1.1 2.7-1.4 0.8-0.3 1.6-0.5 2.3-0.5 0.8-0.1 1.4 0 2 0.2z" fill="#FA7268" p-id="2626"></path><path d="M704.8 614.5c2.6-2.5 5.1-5.7 7.6-9.3 2.4-3.6 4.7-7.6 6.8-11.8 2.1-4.2 4-8.6 5.5-13s2.8-8.8 3.5-12.9c0.8-4.2 1-7.7 0.8-10.5-0.2-2.8-1-5-2.1-6.3-1.2-1.3-2.7-1.8-4.7-1.4-2 0.4-4.3 1.8-7 4.1-2.7 2.4-5.4 5.6-8.1 9.4-2.7 3.8-5.2 8.1-7.5 12.7s-4.3 9.4-6 14.2c-1.6 4.8-2.8 9.4-3.5 13.8-0.7 4.3-0.7 7.8-0.3 10.5 0.5 2.6 1.4 4.5 2.8 5.4 1.3 0.9 3.1 1 5.2 0.3 2-1 4.4-2.7 7-5.2z" fill="#DE5349" p-id="2627"></path><path d="M694.2 642.4l-152.8-65.6c-0.8-0.4-1.8-0.6-2.7-0.7-1-0.1-2-0.1-3 0.1-1.1 0.2-2.2 0.5-3.3 0.9-1.2 0.4-2.3 1-3.6 1.8-3.1 1.9-6.1 4.5-8.9 7.8-2.8 3.2-5.3 7-7.5 11.1s-3.9 8.5-5.2 12.9c-1.2 4.4-1.9 8.8-2 13 0 2.2 0.1 4.2 0.5 6.1s0.8 3.4 1.5 4.9c0.6 1.4 1.4 2.6 2.3 3.6 0.9 1 1.9 1.7 3 2.3l149.7 72.3c-0.8-0.4-1.5-1-2-1.9-0.5-0.9-1-2-1.3-3.3-0.3-1.4-0.4-3-0.4-4.8 0-1.8 0.2-3.9 0.6-6.2 0.7-4.3 1.9-9 3.5-13.8 1.6-4.8 3.7-9.6 6-14.2s4.8-8.9 7.5-12.7c2.6-3.8 5.4-7 8.1-9.4 1.1-1 2.1-1.7 3-2.4 1-0.6 1.8-1.1 2.7-1.4 0.8-0.3 1.6-0.5 2.3-0.5 0.8-0.3 1.4-0.2 2 0.1z" fill="#FA7268" p-id="2628"></path><path d="M673.8 707.5c2.6-2.5 5.1-5.7 7.6-9.3 2.4-3.6 4.7-7.6 6.8-11.8 2.1-4.2 4-8.6 5.5-13s2.8-8.8 3.5-12.9c0.8-4.2 1-7.7 0.8-10.5-0.2-2.8-1-5-2.1-6.3-1.2-1.3-2.7-1.8-4.7-1.4-2 0.4-4.3 1.8-7 4.1-2.7 2.4-5.4 5.6-8.1 9.4-2.7 3.8-5.2 8.1-7.5 12.7s-4.3 9.4-6 14.2c-1.6 4.8-2.8 9.4-3.5 13.8-0.7 4.3-0.7 7.8-0.3 10.5 0.5 2.6 1.4 4.5 2.8 5.4 1.3 0.9 3.1 1 5.2 0.3 2-1 4.4-2.7 7-5.2z" fill="#DE5349" p-id="2629"></path><path d="M513.4 383c-8.4 0-17.2-1.3-22-5.9l6.5-6.7c4.7 4.5 22.4 3.6 33.5 1.5l1.7 9.2c-2.6 0.5-10.9 1.9-19.7 1.9zM581.2 408c-22-32.5-40.9-23.8-41.1-23.7l-4.5-9.3c1.1-0.5 27.3-12.6 54.2 27.2l-8.6 5.8zM449.4 526.5l-9.2-4.6c11.8-23.7 62-14.2 67.7-13l-2.1 10.1c-12.4-2.4-49.4-6.5-56.4 7.5zM574.2 541.7c-9.3-32.1-54.8-39.6-55.3-39.7l1.6-10.2c2.1 0.3 52.5 8.5 63.6 47l-9.9 2.9zM428.8 686.1c-4.1-40.7 49.8-62.2 52.1-63.1l3.8 9.6c-0.5 0.2-48.9 19.5-45.6 52.5l-10.3 1z" fill="#FA7268" p-id="2630"></path><path d="M539.7 629.6c-3.5-12.3-40.8-20.8-66.1-22.9l0.9-10.3c11.4 0.9 68.5 6.8 75.2 30.4l-10 2.8z" fill="#FA7268" p-id="2631"></path><path d="M572.2 815l-3.5-2.2c-6.9-4.3-15.5-4.9-23-1.6l-3.8 1.7 1-4c1.9-7.9-0.1-16.3-5.6-22.4l-2.8-3.1 4.2-0.3c8.1-0.6 15.4-5.2 19.5-12.2l2.1-3.6 1.6 3.9c3.1 7.5 9.7 13.1 17.7 14.8l4.1 0.9-3.2 2.7c-6.2 5.3-9.5 13.3-8.7 21.4l0.4 4zM497.5 784.9c4.5 2.2 15.2 10.6 13.7 13.8-1.5 3.2-14.7 0-19.3-2.2-4.5-2.2-7-6.6-5.4-9.8 1.5-3.2 6.5-4 11-1.8zM506 745.3c4.1 3 13.2 13 11.1 15.9-2.1 2.9-14.5-2.5-18.6-5.4-4.1-3-5.8-7.7-3.7-10.6 2.1-2.9 7.1-2.9 11.2 0.1zM489.4 820.2c4.9-1.4 18.4-2.2 19.4 1.3 1 3.4-11 9.8-15.9 11.2-4.9 1.4-9.6-0.3-10.6-3.8s2.2-7.4 7.1-8.7zM529.2 849.6c0.8-5 5.9-17.5 9.5-17s4.1 14.2 3.3 19.1c-0.8 5-4.4 8.5-7.9 7.9-3.6-0.5-5.8-5-4.9-10zM586 850.4c-2.2-4.6-5.2-17.8-2-19.3s11.5 9.2 13.7 13.8 1.3 9.5-1.9 11c-3.3 1.5-7.6-0.9-9.8-5.5zM643.1 782.5c-5 0.6-18.5-0.8-18.9-4.3s12.4-8 17.4-8.5c5-0.6 9.4 1.8 9.8 5.3 0.5 3.6-3.3 6.9-8.3 7.5zM614.8 813.6c-4.9-1.3-17-7.4-16.1-10.8 0.9-3.5 14.4-2.9 19.3-1.7s8.1 5.1 7.3 8.5c-0.9 3.4-5.6 5.2-10.5 4zM611.4 753.9c-2.8 4.2-12.6 13.6-15.6 11.6s2.1-14.6 4.9-18.8 7.5-6 10.5-4 3.1 7 0.2 11.2z" fill="#FF7168" p-id="2632"></path></svg>