<svg t="1626180364525" class="icon" viewBox="0 0 1024 1024" version="1.1" xmlns="http://www.w3.org/2000/svg" p-id="1347" width="200" height="200"><path d="M394.752 1024c-53.76 0-97.28-43.52-97.28-97.28s43.52-97.28 97.28-97.28 97.28 43.52 97.28 97.28-43.52 97.28-97.28 97.28z m0-131.072c-18.432 0-33.28 14.848-33.28 33.28s14.848 33.28 33.28 33.28 33.28-14.848 33.28-33.28-14.848-33.28-33.28-33.28z m380.928 131.072c-53.76 0-97.28-43.52-97.28-97.28s43.52-97.28 97.28-97.28 97.28 43.52 97.28 97.28-43.52 97.28-97.28 97.28z m0-131.072c-18.432 0-33.28 14.848-33.28 33.28s14.848 33.28 33.28 33.28 33.28-14.848 33.28-33.28-14.848-33.28-33.28-33.28z m61.44-118.784h-435.2c-40.448 0-75.264-14.848-103.424-44.544-23.04-24.576-41.984-58.368-56.832-104.448-26.624-79.872-38.4-182.272-51.2-290.816-2.048-18.944-4.608-38.912-7.168-58.368-9.216-73.216-32.768-124.928-68.608-150.016S40.96 109.056 40.448 109.056c-17.408 4.096-34.304-6.656-38.4-23.552C-2.048 68.096 8.192 51.2 25.6 47.104c2.56-1.024 65.536-14.848 125.44 26.624 39.424 27.648 67.584 71.68 83.968 132.096h0.512l687.104 1.536c37.376 0 59.904 15.36 72.192 28.16 27.648 29.184 26.112 68.096 25.6 72.704v3.072c0 1.536-19.456 136.192-56.32 292.864-16.896 71.68-41.472 121.856-73.728 148.48-22.016 17.92-41.984 21.504-53.248 21.504zM246.784 269.824c2.56 18.944 4.608 37.888 6.656 56.32 12.288 105.472 24.064 204.8 48.64 278.528 11.776 36.352 26.624 62.976 42.496 80.384 15.872 16.896 34.304 25.088 56.832 25.088H837.632c2.048-0.512 9.216-2.56 18.432-13.312 12.288-14.336 30.72-44.032 45.568-107.52 33.792-143.36 52.224-268.288 54.784-285.184 0-5.12-1.536-17.408-8.704-24.576-5.12-5.12-13.824-8.192-25.6-8.192l-675.328-1.536z" fill="#333333" p-id="1348"></path></svg>