<svg t="1580809524776" class="icon" viewBox="0 0 1024 1024" version="1.1" xmlns="http://www.w3.org/2000/svg" p-id="3644" width="200" height="200"><path d="M520.045714 980.114286c60.189257 0 108.982857-24.94464 108.982857-55.714377V789.942857H410.331429c0.487131 81.481143 0.731429 126.301623 0.731428 134.457052C411.062857 955.169646 459.856457 980.114286 520.045714 980.114286z" fill="#FFC600" p-id="3645"></path><path d="M515.657143 0C541.915429 0 563.2 21.284571 563.2 47.542857V108.251429h-95.085714V47.542857C468.114286 21.284571 489.398857 0 515.657143 0zM545.645714 90.697143V47.542857c0-16.562469-13.426103-29.988571-29.988571-29.988571S485.668571 30.980389 485.668571 47.542857V90.697143h59.977143zM514.925714 842.605714v175.542857a4.388571 4.388571 0 0 0 8.777143 0V842.605714a4.388571 4.388571 0 0 0-8.777143 0zM493.129143 841.142857v175.542857a4.388571 4.388571 0 0 0 8.777143 0V841.142857a4.388571 4.388571 0 0 0-8.777143 0zM536.722286 841.142857v175.542857a4.388571 4.388571 0 0 0 8.777143 0V841.142857a4.388571 4.388571 0 0 0-8.777143 0zM405.942857 804.571429v175.542857a4.388571 4.388571 0 0 0 8.777143 0V804.571429a4.388571 4.388571 0 0 0-8.777143 0zM623.908571 804.571429v175.542857a4.388571 4.388571 0 0 0 8.777143 0V804.571429a4.388571 4.388571 0 0 0-8.777143 0zM471.332571 838.217143v175.542857a4.388571 4.388571 0 0 0 8.777143 0V838.217143a4.388571 4.388571 0 0 0-8.777143 0zM449.536 829.44v175.542857a4.388571 4.388571 0 0 0 8.777143 0V829.44a4.388571 4.388571 0 0 0-8.777143 0zM558.518857 838.217143v175.542857a4.388571 4.388571 0 0 0 8.777143 0V838.217143a4.388571 4.388571 0 0 0-8.777143 0zM580.315429 829.44v175.542857a4.388571 4.388571 0 0 0 8.777142 0V829.44a4.388571 4.388571 0 0 0-8.777142 0zM602.112 819.2v175.542857a4.388571 4.388571 0 0 0 8.777143 0V819.2a4.388571 4.388571 0 0 0-8.777143 0zM427.739429 819.2v175.542857a4.388571 4.388571 0 0 0 8.777142 0V819.2a4.388571 4.388571 0 0 0-8.777142 0z" fill="#91000A" p-id="3646"></path><path d="M595.382857 90.697143c42.3424 0 76.835109 33.970469 77.522652 76.323108l0.080457 9.985463H356.937143v-8.777143c0-42.819291 34.712137-77.531429 77.531428-77.531428h160.914286z m59.206217 67.886811C649.976686 130.018743 625.19296 108.251429 595.382857 108.251429H434.468571c-30.143634 0-55.0912 22.235429-59.339337 51.2h279.594423l-0.134583-0.867475zM595.382857 857.234286c42.3424 0 76.835109-33.970469 77.522652-76.323109l0.080457-9.985463H356.937143v8.777143c0 42.819291 34.712137 77.531429 77.531428 77.531429h160.914286z m59.206217-67.886812C649.976686 817.912686 625.19296 839.68 595.382857 839.68H434.468571c-30.143634 0-55.0912-22.235429-59.339337-51.2h279.594423l-0.134583 0.867474z" fill="#91000A" p-id="3647"></path><path d="M434.468571 848.457143h160.914286c37.971383 0 68.754286-30.782903 68.754286-68.754286H365.714286c0 37.971383 30.782903 68.754286 68.754285 68.754286z" fill="#FFE400" p-id="3648"></path><path d="M416.914286 779.702857c0 37.971383 30.782903 68.754286 68.754285 68.754286h-51.2c-37.971383 0-68.754286-30.782903-68.754285-68.754286h51.2z" fill="#FFA700" p-id="3649"></path><path d="M434.468571 99.474286h160.914286c37.971383 0 68.754286 30.782903 68.754286 68.754285H365.714286c0-37.971383 30.782903-68.754286 68.754285-68.754285z" fill="#FFE400" p-id="3650"></path><path d="M481.28 99.474286c-37.971383 0-68.754286 30.782903-68.754286 68.754285h-46.811428c0-37.971383 30.782903-68.754286 68.754285-68.754285z" fill="#FFA700" p-id="3651"></path><path d="M77.531429 471.771429a434.468571 332.8 0 1 0 868.937142 0 434.468571 332.8 0 1 0-868.937142 0Z" fill="#D8000F" p-id="3652"></path><path d="M512 138.971429c7.358171 0 14.675383 0.140434 21.945783 0.416914C304.186514 148.143543 121.417143 293.607131 121.417143 471.771429s182.769371 323.627886 412.525714 332.383085c-7.267474 0.277943-14.584686 0.416914-21.942857 0.416915-239.950994 0-434.468571-148.999314-434.468571-332.8S272.049006 138.971429 512 138.971429z" fill="#C40714" p-id="3653"></path><path d="M512.002926 138.971429c-7.359634 0-14.676846 0.140434-21.945783 0.416914C719.814949 148.143543 902.585783 293.607131 902.585783 471.771429s-182.770834 323.627886-412.525714 332.383085c7.266011 0.277943 14.583223 0.416914 21.942857 0.416915 239.949531 0 434.468571-148.999314 434.468571-332.8S751.952457 138.971429 512.002926 138.971429z" fill="#C40714" p-id="3654"></path><path d="M512 134.582857c242.156983 0 438.857143 150.67136 438.857143 337.188572S754.156983 808.96 512 808.96 73.142857 658.28864 73.142857 471.771429 269.843017 134.582857 512 134.582857z m0 8.777143C274.256457 143.36 81.92 290.688731 81.92 471.771429S274.256457 800.182857 512 800.182857s430.08-147.328731 430.08-328.411428S749.743543 143.36 512 143.36z" fill="#91000A" p-id="3655"></path><path d="M197.485714 471.771429a332.8 314.514286 90 1 0 629.028572 0 332.8 314.514286 90 1 0-629.028572 0Z" fill="#D8000F" p-id="3656"></path><path d="M512 134.582857c176.182126 0 318.902857 151.018057 318.902857 337.188572S688.182126 808.96 512 808.96 193.097143 657.941943 193.097143 471.771429 335.817874 134.582857 512 134.582857z m0 8.777143c-171.220114 0-310.125714 146.980571-310.125714 328.411429S340.779886 800.182857 512 800.182857s310.125714-146.980571 310.125714-328.411428S683.220114 143.36 512 143.36z" fill="#91000A" p-id="3657"></path><path d="M197.485714 473.234286a334.262857 314.514286 90 1 0 629.028572 0 334.262857 314.514286 90 1 0-629.028572 0Z" fill="#D8000F" p-id="3658"></path><path d="M512 138.971429c7.377189 0 14.6944 0.269166 21.945783 0.797257C370.478811 151.689509 241.371429 295.776549 241.371429 471.771429c0 175.99488 129.107383 320.08192 292.571428 332.002742-7.248457 0.528091-14.565669 0.797257-21.942857 0.797258-173.70112 0-314.514286-148.999314-314.514286-332.8S338.29888 138.971429 512 138.971429z" fill="#C40714" p-id="3659"></path><path d="M512.002926 138.971429c-7.377189 0-14.695863 0.269166-21.945783 0.797257 163.466971 11.920823 292.574354 156.007863 292.574354 332.002743 0 175.99488-129.107383 320.08192-292.571428 332.002742 7.246994 0.528091 14.565669 0.797257 21.942857 0.797258 173.70112 0 314.514286-148.999314 314.514285-332.8S685.704046 138.971429 512.002926 138.971429z" fill="#C40714" p-id="3660"></path><path d="M512 133.12c176.186514 0 318.902857 151.677806 318.902857 338.651429S688.186514 810.422857 512 810.422857 193.097143 658.745051 193.097143 471.771429 335.813486 133.12 512 133.12z m0 8.777143c-171.215726 0-310.125714 147.631543-310.125714 329.874286S340.784274 801.645714 512 801.645714s310.125714-147.631543 310.125714-329.874285S683.215726 141.897143 512 141.897143z" fill="#FFE400" p-id="3661"></path><path d="M390.582857 471.771429a332.8 121.417143 90 1 0 242.834286 0 332.8 121.417143 90 1 0-242.834286 0Z" fill="#D8000F" p-id="3662"></path><path d="M415.451429 449.097143c0 180.165486 54.359771 326.217143 121.417142 326.217143 12.071497 0 23.730469-4.732343 34.735543-13.544595C553.998629 789.02272 533.661989 804.571429 512 804.571429c-67.057371 0-121.417143-148.999314-121.417143-332.8 0-168.920503 45.914697-308.446354 105.401783-329.931338C449.041554 186.9312 415.451429 307.475017 415.451429 449.097143z" fill="#C40714" p-id="3663"></path><path d="M512 134.582857c70.685257 0 125.805714 151.08096 125.805714 337.188572S582.685257 808.96 512 808.96s-125.805714-151.08096-125.805714-337.188571S441.314743 134.582857 512 134.582857z m0 8.777143c-63.428023 0-117.028571 146.919131-117.028571 328.411429S448.571977 800.182857 512 800.182857s117.028571-146.919131 117.028571-328.411428S575.428023 143.36 512 143.36z" fill="#FFE400" p-id="3664"></path></svg>