<svg t="1615641164159" class="icon" viewBox="0 0 1024 1024" version="1.1" xmlns="http://www.w3.org/2000/svg" p-id="3504" width="200" height="200"><path d="M621.3 539.7V337.2c0-19.8-48.9-35.9-109.3-35.9s-109.3 16.1-109.3 35.9v202.5c-17.7 7.2-28.3 16.1-28.3 25.8v300.8c0 23.5 61.6 42.6 137.6 42.6s137.6-19.1 137.6-42.6V565.5c0-9.7-10.6-18.6-28.3-25.8z" fill="#FD6A88" p-id="3505"></path><path d="M512 920.3c-37.9 0-73.6-4.6-100.7-13-39.9-12.4-48.3-29.1-48.3-40.9V565.5c0-13 9.5-24.2 28.3-33.2V337.2c0-32.5 62.5-47.2 120.6-47.2 58.1 0 120.6 14.8 120.6 47.2v195.1c18.8 9 28.3 20.2 28.3 33.2v300.8c0 11.9-8.4 28.6-48.3 40.9-26.9 8.4-62.6 13.1-100.5 13.1z m0-607.7c-28 0-54.2 3.5-73.8 10-19.9 6.5-24.2 13.3-24.2 14.6v210.2l-7.1 2.9c-17.4 7.1-21.2 13.4-21.2 15.3v300.8c0 2.4 5.9 11.1 32.3 19.3 24.9 7.7 58.3 12 94 12s69-4.2 94-12c26.4-8.2 32.3-16.9 32.3-19.3V565.5c0-1.9-3.8-8.2-21.2-15.3l-7.1-2.9V337.2c0-1.3-4.3-8.1-24.2-14.6-19.6-6.4-45.8-10-73.8-10z" fill="#94005E" p-id="3506"></path><path d="M565.6 905.6c49.4-6.5 84.1-21.6 84.1-39.2V565.5c0-9.7-10.6-18.6-28.3-25.8V358.6c-27.2 29-86.4 30.6-86.4 30.6v170.6l14.8 25.6v320.2h15.8z" fill="#94005E" opacity=".08" p-id="3507"></path><path d="M543.1 115.1c-49.9 15.4-102.9 97.3-102.9 174.5v45.5c0 13 32.2 23.5 71.8 23.5 39.7 0 71.8-10.5 71.8-23.5v-48.6s-0.5-123.5-40.7-171.4z" fill="#FFC5DA" p-id="3508"></path><path d="M512 370c-41.4 0-83.2-10.8-83.2-34.8v-45.5c0-38.5 12.2-79.8 34.4-116.3 21.6-35.5 49.5-60.7 76.5-69 4.4-1.4 9.1 0 12 3.5 42.4 50.4 43.4 173.5 43.4 178.7v48.7c0.1 23.9-41.7 34.7-83.1 34.7z m-60.5-35.8c3.4 4.1 24 13 60.5 13s57.1-8.9 60.5-13v-47.7c0-1.1-0.9-109.6-33.3-157.8-19.5 8.9-40.1 29.4-56.5 56.4-19.8 32.5-31.1 70.6-31.1 104.5v44.6z" fill="#94005E" p-id="3509"></path><path d="M414.1 866.7c-7.8 0-14.2-6.3-14.2-14.2V594c0-13.8 9.5-25.6 28.3-35V402.7c0-7.8 6.3-14.2 14.2-14.2 7.8 0 14.2 6.3 14.2 14.2v165.5c0 5.8-3.5 11-8.9 13.1-14.7 5.9-19 11.3-19.5 12.8v258.4c0 7.8-6.3 14.2-14.1 14.2z" fill="#FFFFFF" p-id="3510"></path></svg>