<svg t="1615639657993" class="icon" viewBox="0 0 1637 1024" version="1.1" xmlns="http://www.w3.org/2000/svg" p-id="2224" width="200" height="200"><path d="M 776.384 59.4321 s -218.479 288.792 -562.292 288.792 c 0 0 273.264 644.219 562.292 644.219 s 562.292 -644.219 562.292 -644.219 c -343.813 0 -562.292 -288.792 -562.292 -288.792 Z" fill="#9bd4ca" p-id="2225"></path><path d="M 749.163 43.5093 c 8.69714 -11.4823 1.6028 -2.07575 -1.68162 1.89182 c -5.9645 7.27827 -12.1655 14.3726 -18.3927 21.3356 a 849.85 849.85 0 0 1 -68.6575 67.5539 q -11.3509 9.98463 -23.0172 19.5751 a 737.68 737.68 0 0 1 -12.402 10.0109 l -6.41118 5.04487 c 5.49155 -4.28288 -3.67855 2.75891 -4.62446 3.46835 q -28.2197 21.2568 -58.1736 40.1225 a 777.304 777.304 0 0 1 -69.8136 38.9663 a 578.793 578.793 0 0 1 -70.9434 29.9539 a 600.26 600.26 0 0 1 -200.849 35.1827 c -26.2753 0 -36.26 26.2753 -27.2475 47.4533 c 32.3449 76.1985 70.9434 150.137 111.933 221.948 a 1797.36 1797.36 0 0 0 121.655 187.659 c 45.141 60.4333 94.5912 118.686 153.658 165.85 c 53.0236 42.4084 112.432 75.9095 180.774 83.2928 c 64.0067 6.88414 127.83 -17.2629 180.722 -51.7624 c 61.0902 -39.8334 112.984 -92.8308 158.913 -149.007 a 1619.59 1619.59 0 0 0 132.743 -190.575 a 2253.11 2253.11 0 0 0 136.632 -262.753 l 1.97065 -4.57191 c 9.01244 -21.2305 -1.05101 -47.2956 -27.2213 -47.4533 c -116.347 -0.367855 -226.677 -35.3666 -325.683 -94.4336 q -32.2924 -19.2598 -62.7192 -41.4362 q -5.72802 -4.17778 -11.3772 -8.43439 l -6.72649 -4.99232 c 5.51782 4.23033 -1.62907 -1.28749 -2.25968 -1.78672 q -13.3742 -10.5101 -26.2753 -21.5721 a 861.148 861.148 0 0 1 -73.7286 -70.523 q -11.8239 -12.7698 -23.0172 -26.1177 c -3.20559 -3.86248 -12.6647 -16.2119 -3.28442 -3.8362 c -10.2737 -13.5318 -27.195 -20.6261 -43.1178 -11.2984 c -13.3479 7.8826 -21.6772 29.4809 -11.3247 43.1441 c 29.2707 38.6248 64.1118 73.2557 100.503 105.101 c 80.2449 70.2603 172.077 127.225 273.027 162.408 a 664.031 664.031 0 0 0 215.957 36.7855 l -27.2738 -47.3744 c -31.1626 73.3608 -68.3159 144.646 -107.414 213.96 a 1843.16 1843.16 0 0 1 -118.423 185.189 q -8.11908 11.0882 -16.4484 21.9662 c -0.604333 0.78826 -3.65227 4.70329 -0.341579 0.446681 l -4.44053 5.67547 c -3.25814 4.12523 -6.51628 8.25046 -9.82698 12.3494 q -17.368 21.467 -35.8396 42.0406 a 733.45 733.45 0 0 1 -75.6467 73.571 c -2.96911 2.46988 -5.99078 4.91349 -9.01244 7.33082 c 0 0 -6.64766 5.25507 -2.83774 2.28595 s -2.83774 2.1283 -2.86401 2.15458 c -6.70021 4.99231 -13.453 9.82698 -20.3897 14.4777 a 372.742 372.742 0 0 1 -40.3327 23.6478 c -3.10049 1.57652 -6.22726 3.07421 -9.40657 4.54563 l -5.25507 2.33851 c -4.41426 1.99693 7.19944 -2.62753 0.157652 0 s -13.9522 5.25507 -21.0203 7.5673 q -9.45912 2.96911 -19.1285 5.09742 c -3.5209 0.78826 -7.09434 1.41887 -10.6415 2.10203 c -0.656884 0 -7.75123 1.23494 -2.2334 0.39413 s -2.2334 0.262753 -3.28442 0.367855 a 217.586 217.586 0 0 1 -41.7778 0 c -9.24892 -0.840811 4.72956 1.12984 -4.44053 -0.656884 c -3.20559 -0.630608 -6.41118 -1.18239 -9.5905 -1.86555 q -10.7466 -2.33851 -21.2568 -5.6492 c -6.77904 -2.15458 -13.4004 -4.70329 -20.0481 -7.252 c -5.25507 -1.99693 0.39413 0.157652 1.23494 0.551782 l -5.25507 -2.33851 c -3.86248 -1.76045 -7.69868 -3.626 -11.5086 -5.5441 a 376.421 376.421 0 0 1 -40.3064 -23.8055 c -6.56884 -4.41426 -12.98 -9.03872 -19.3387 -13.7683 c -1.36632 -0.998463 -2.62753 -2.0232 -4.0464 -3.04794 c 5.99078 4.57191 -0.814536 -0.683159 -1.68162 -1.39259 c -3.33697 -2.62753 -6.70021 -5.41272 -10.0109 -8.17163 c -13.1377 -11.0882 -26.0389 -22.7807 -38.3883 -34.8937 a 936.716 936.716 0 0 1 -73.8863 -82.2418 c -11.8239 -14.7405 -17.4731 -22.0976 -30.1378 -39.413 q -17.0527 -23.3062 -33.212 -47.2956 q -30.821 -45.5614 -58.8568 -92.8833 c -48.951 -82.1893 -90.1244 -167.505 -131.088 -253.767 c -0.656884 -1.34004 -1.20867 -2.62753 -1.78672 -4.12523 l -27.2213 47.427 c 125.281 -0.39413 247.33 -37.889 354.717 -101.449 a 888.947 888.947 0 0 0 199.088 -160.779 c 12.4808 -13.5318 24.4886 -27.4577 35.6031 -42.0406 c 10.2999 -13.5844 2.15458 -35.2878 -11.2984 -43.1441 c -16.1856 -9.40657 -32.8179 -2.39106 -43.1441 11.2196 Z" p-id="2226"></path><path d="M 249.143 351.64 c 4.44053 -49.9232 6.41118 -100.004 2.25968 -149.901 c -5.41272 -65.084 -19.0233 -143.358 -76.1985 -183.927 c -36.5753 -25.8812 -81.1908 -21.4932 -113.956 8.04025 c -28.246 25.4608 -46.2446 65.6884 -53.8119 102.342 C -3.88875 183.242 0.052551 239.839 4.36171 295.411 c 4.07268 52.7083 12.3757 106.599 41.8041 151.74 c 59.1458 90.755 165.535 126.568 268.902 134.924 c 17.0001 1.39259 31.5304 -15.4762 31.5304 -31.5304 c 0 -18.2088 -14.4777 -30.1378 -31.5304 -31.5304 c -70.7858 -5.72802 -148.298 -27.4315 -198.3 -82.7148 c -27.0899 -29.9539 -40.8056 -69.1304 -46.2972 -109.962 a 781.14 781.14 0 0 1 -6.91042 -141.624 a 231.827 231.827 0 0 1 9.66933 -58.7779 c 1.07729 -3.4158 2.28595 -6.75276 3.49462 -10.0897 a 33.0018 33.0018 0 0 1 2.94284 -7.06807 a 180.512 180.512 0 0 1 12.4282 -22.3866 c 1.15612 -1.76045 2.33851 -3.5209 3.57345 -5.25507 c 3.10049 -4.23033 -2.62753 2.94284 0.814535 -0.972188 a 105.601 105.601 0 0 1 7.19944 -7.75123 c 1.41887 -1.36632 2.86401 -2.62753 4.36171 -3.9413 c -1.02474 0.867086 -4.49308 2.91656 0.525506 -0.262753 c 1.97065 -1.26122 10.3525 -5.25507 4.78211 -3.17932 c 2.07575 -0.73571 11.5349 -2.28595 4.96604 -1.86555 c 2.07575 -0.131377 11.5086 1.10356 5.91195 -0.183928 c 8.56576 1.97065 8.27673 2.31223 15.4762 6.70021 c 1.26122 0.78826 2.44361 1.7079 3.67855 2.62753 c -0.893362 -0.630608 -4.93976 -4.57191 -1.10356 -0.761985 c 1.86555 1.83927 3.91503 3.5209 5.7543 5.38645 s 4.1515 4.49308 6.14843 6.83159 s -1.23494 -1.62907 -1.34004 -1.78672 c 1.36632 1.9181 2.75891 3.8362 4.07268 5.83313 a 149.769 149.769 0 0 1 9.03872 16.0017 c 1.02474 2.07575 3.96758 8.72341 1.52397 2.91656 c 1.52397 3.626 2.89029 7.30455 4.20405 11.0094 a 296.911 296.911 0 0 1 10.9305 41.1735 q 2.18085 11.1933 3.7311 22.518 c -0.867086 -6.17471 0.262753 2.62753 0.472956 4.46681 c 0.499232 4.30916 0.919637 8.59204 1.28749 12.9012 c 4.49308 50.8428 2.62753 102.001 -1.99693 152.765 c -1.52397 16.9739 15.555 31.5304 31.5304 31.5304 c 18.3927 0 30.0064 -14.504 31.5304 -31.5304 Z M 1367.74 351.64 a 925.339 925.339 0 0 1 -3.59972 -129.984 q 0.551782 -10.6678 1.44514 -21.3619 c 0.341579 -3.80993 0.683159 -7.61985 1.10356 -11.456 c 0.157652 -1.6028 1.7079 -13.8734 0.78826 -7.33082 a 366.988 366.988 0 0 1 8.38183 -43.0127 c 1.7079 -6.56884 3.626 -13.1377 5.8594 -19.47 c 1.12984 -3.31069 2.41733 -6.56884 3.65227 -9.85325 c 0.499232 -1.34004 2.62753 -5.41272 -0.183927 0.39413 c 0.893362 -1.89182 1.76045 -3.8362 2.62753 -5.72802 a 149.769 149.769 0 0 1 9.06499 -16.0017 c 0.840811 -1.28749 5.41272 -7.61985 3.02167 -4.49308 s 3.7311 -4.23033 5.01859 -5.57037 c 2.10203 -2.18085 4.44053 -4.09895 6.59511 -6.20098 c 3.75737 -3.75737 -4.38798 2.41733 1.62907 -1.15612 c 7.8826 -4.67701 7.8826 -5.41272 16.3958 -7.33082 c -5.57037 1.28749 2.46988 0.131377 4.54563 0.131376 c 4.75584 0 -4.70329 -1.34004 -0.210203 0 c 1.73417 0.525507 3.5209 0.945912 5.25507 1.49769 c 3.4158 1.07729 -0.709434 -0.341579 -1.18239 -0.578058 c 1.65535 0.840811 3.28442 1.7079 4.88721 2.62754 a 54.4425 54.4425 0 0 1 4.72956 3.12677 c -3.626 -2.62753 0 0 1.44514 1.57652 a 130.247 130.247 0 0 1 8.27673 8.74969 c 2.31223 2.62753 0.315304 0.236478 0 -0.315304 c 1.26122 1.65535 2.46988 3.4158 3.626 5.25507 a 169.134 169.134 0 0 1 12.6122 22.2815 c 0.919637 1.9181 1.813 3.86248 2.62753 5.83313 c -1.83927 -4.30916 0.183927 0.551782 0.420405 1.20867 a 231.827 231.827 0 0 1 4.0464 11.5612 a 198.957 198.957 0 0 1 5.91195 23.7792 c 8.67086 46.8752 3.59972 96.3254 0 143.516 c -3.17932 42.5923 -9.66933 85.6313 -33.3697 122.102 c -45.8242 70.4179 -135.844 97.2188 -214.459 103.683 c -16.9739 1.36632 -31.5304 13.5055 -31.5304 31.5304 c 0 16.0017 14.4777 32.923 31.5304 31.5304 c 89.3362 -7.22572 184.374 -34.1579 245.412 -104.024 c 34.8674 -39.886 53.3127 -87.0502 60.5909 -139.259 c 7.4622 -53.3915 12.0604 -110.067 7.8826 -163.906 c -3.33697 -43.6171 -13.4793 -88.075 -39.1765 -124.361 c -24.9353 -35.2615 -65.2942 -62.0624 -109.726 -45.7191 c -69.1042 25.4345 -90.1244 105.443 -98.6376 170.974 c -7.5673 58.2524 -5.70175 117.293 -0.472956 175.651 c 1.49769 16.9476 13.4004 31.5304 31.5304 31.5304 c 15.7652 0 33.0544 -14.4777 31.5304 -31.5304 Z" p-id="2227"></path><path d="M 1291.12 378.467 c -105.364 -7.54102 -238.685 -61.8784 -286.401 -87.313 c -33.4222 -17.8147 -158.099 -109.358 -228.333 -180.696 c 34.8937 60.4333 97.429 181.825 104.628 291.288 c 5.57037 84.8168 0 160.595 -17.9723 268.429 c -35.7082 214.959 -62.4039 289.87 -62.4039 289.87 c 114.744 -28.9029 195.383 -105.601 310.049 -263.647 c 71.8105 -98.9529 152.739 -260.467 180.433 -317.932 Z m -291.157 125.255 c -0.630608 1.05101 -1.26122 2.10203 -1.94438 3.17932 v -4.59819 c 0.683159 0.604333 1.28749 1.07729 1.94438 1.41887 Z" fill="#00ac9a" p-id="2228"></path></svg>