<svg t="1618837863186" class="icon" viewBox="0 0 1024 1024" version="1.1" xmlns="http://www.w3.org/2000/svg" p-id="1576" width="200" height="200"><path d="M621 317.3m-155.9 0a155.9 155.9 0 1 0 311.8 0 155.9 155.9 0 1 0-311.8 0Z" fill="#CAE0FF" p-id="1577"></path><path d="M759.3 878.4H482.7c-36.9 0-67-30.2-67-67V668.5c0-96.3 78.8-175 175-175h60.6c96.3 0 175 78.8 175 175v142.9c0 36.8-30.2 67-67 67zM570.7 384.4c5 4.2 24.1 19 52.5 18.8 28-0.1 46.8-14.6 51.9-18.8" fill="#CAE0FF" p-id="1578"></path><path d="M807.8 260.7H434.2c0-103.2 83.6-186.8 186.8-186.8s186.8 83.6 186.8 186.8z" fill="#FFAD94" p-id="1579"></path><path d="M819.6 280.8H426.1c-10.7 0-19.5-8.8-19.5-19.5v-0.3c0-10.7 8.8-19.5 19.5-19.5h393.5c10.7 0 19.5 8.8 19.5 19.5v0.3c0 10.7-8.8 19.5-19.5 19.5z" fill="#FFAD94" p-id="1580"></path><path d="M553.4 489c-96.1 0-174.3-78.2-174.3-174.3 0-96.1 78.2-174.3 174.3-174.3 96.1 0 174.3 78.2 174.3 174.3-0.1 96.1-78.2 174.3-174.3 174.3z m0-311.7c-75.8 0-137.5 61.7-137.5 137.5s61.7 137.5 137.5 137.5 137.5-61.7 137.5-137.5c-0.1-75.8-61.7-137.5-137.5-137.5z" fill="#839FCC" p-id="1581"></path><path d="M697 894.3H409.7c-44.2 0-80.1-35.9-80.1-80.1V652c0-47.8 18.7-92.8 52.7-126.8s79-52.7 126.8-52.7h88.5c47.8 0 92.8 18.7 126.8 52.7s52.7 79 52.7 126.8v162.1c0 44.2-35.9 80.2-80.1 80.2z m-187.9-385c-37.9 0-73.7 14.9-100.8 41.9-27 27-41.9 62.8-41.9 100.8v162.1c0 23.9 19.4 43.3 43.3 43.3H697c23.9 0 43.3-19.4 43.3-43.3V652c0-37.9-14.9-73.7-41.9-100.8-27-27-62.8-41.9-100.8-41.9h-88.5zM555.3 414.6c-31.1 0-53-15.4-61-22-5.9-4.9-6.7-13.6-1.8-19.4 4.9-5.9 13.6-6.7 19.4-1.8 5.7 4.7 21.4 15.8 43.6 15.7 22-0.1 37.5-11 43.1-15.7 5.9-4.9 14.6-4.1 19.4 1.8 4.9 5.9 4.1 14.6-1.8 19.4-9.9 8.2-30.8 21.9-60.6 22h-0.3z" fill="#839FCC" p-id="1582"></path><path d="M759.4 286.7h-412v-19.2c0-55 21.4-106.8 60.3-145.7 38.9-38.9 90.6-60.3 145.7-60.3 55 0 106.8 21.4 145.7 60.3 38.9 38.9 60.3 90.6 60.3 145.7v19.2z m-372.6-38.3H720c-9.5-83.5-80.6-148.5-166.6-148.5s-157.1 65-166.6 148.5z" fill="#FF7B52" p-id="1583"></path><path d="M763.4 291.9H343.3c-11.8 0-21.4-9.7-21.4-21.4v-0.7c0-11.8 9.7-21.4 21.4-21.4h420.1c11.8 0 21.4 9.7 21.4 21.4v0.7c0.1 11.7-9.6 21.4-21.4 21.4z" fill="#FF7B52" p-id="1584"></path><path d="M228.8 298.4s0.9 1.7 2 4.7c0.6 1.5 1.2 3.3 1.8 5.3 0.6 2.1 1.3 4.4 1.9 6.9 1.3 5.1 2.3 11 3.1 17.3 0.8 6.3 1.1 13.1 1.1 19.9 0 6.8-0.4 13.5-1.1 19.9-0.7 6.3-1.8 12.3-3.1 17.3-0.6 2.5-1.3 4.9-1.9 6.9-0.7 2.1-1.3 3.9-1.9 5.3-1.1 3-2 4.7-2 4.7s-0.9-1.7-2-4.7c-0.6-1.5-1.2-3.3-1.9-5.3-0.6-2.1-1.3-4.4-1.9-6.9-1.3-5.1-2.4-11-3.1-17.3-0.8-6.3-1.1-13.1-1.1-19.9 0-6.8 0.4-13.5 1.1-19.9 0.7-6.3 1.8-12.3 3.1-17.3 0.6-2.5 1.3-4.9 1.9-6.9 0.6-2.1 1.3-3.9 1.8-5.3 1.3-3 2.2-4.7 2.2-4.7z" fill="#F9DE55" p-id="1585"></path><path d="M183.9 344.8s1.4-0.9 4-2c1.3-0.6 2.8-1.2 4.6-1.8 1.8-0.6 3.8-1.3 5.9-1.9 4.3-1.3 9.4-2.3 14.8-3.1 5.4-0.7 11.2-1.1 17-1.1 5.8 0 11.6 0.4 17 1.1 5.4 0.7 10.5 1.8 14.8 3.1 2.2 0.6 4.2 1.3 5.9 1.9 1.8 0.7 3.3 1.3 4.6 1.9 2.5 1.1 4 2 4 2s-1.4 0.9-4 2c-1.3 0.6-2.8 1.2-4.6 1.8-1.8 0.6-3.8 1.3-5.9 1.9-4.3 1.3-9.4 2.3-14.8 3.1-5.4 0.7-11.2 1.1-17 1.1-5.8 0-11.6-0.4-17-1.2-5.4-0.8-10.5-1.9-14.8-3.1-2.2-0.6-4.2-1.3-5.9-1.9-1.8-0.7-3.3-1.3-4.6-1.9-2.5-1.1-4-1.9-4-1.9z" fill="#F9DE55" p-id="1586"></path><path d="M293.3 398.1s0.9 1.9 2 5.3c0.6 1.7 1.2 3.7 1.8 6 0.6 2.3 1.3 5 1.9 7.8 1.3 5.7 2.3 12.4 3.1 19.6 0.8 7.2 1.1 14.8 1.1 22.5 0 7.7-0.4 15.3-1.1 22.5-0.7 7.2-1.8 13.9-3.1 19.6-0.6 2.9-1.3 5.5-1.9 7.8-0.7 2.3-1.3 4.4-1.9 6-1.1 3.4-2 5.3-2 5.3s-0.9-1.9-2-5.3c-0.6-1.7-1.2-3.7-1.9-6-0.6-2.3-1.3-5-1.9-7.8-1.3-5.7-2.4-12.4-3.1-19.6-0.8-7.2-1.1-14.8-1.1-22.5 0-7.7 0.4-15.3 1.1-22.5 0.7-7.2 1.8-13.9 3.1-19.6 0.6-2.9 1.3-5.5 1.9-7.8 0.6-2.3 1.3-4.4 1.8-6 1.3-3.4 2.2-5.3 2.2-5.3z" fill="#F9DE55" p-id="1587"></path><path d="M242.4 450.6s1.6-0.9 4.5-2c1.4-0.6 3.2-1.2 5.2-1.8 2-0.6 4.2-1.3 6.7-1.9 4.9-1.2 10.6-2.3 16.8-3.1 6.1-0.7 12.7-1.1 19.2-1.1s13.1 0.4 19.2 1.2c6.1 0.7 11.9 1.9 16.8 3.1 2.5 0.6 4.7 1.3 6.7 1.9 2 0.7 3.7 1.3 5.2 1.9 2.9 1.1 4.5 2 4.5 2s-1.6 0.9-4.5 2c-1.4 0.6-3.2 1.2-5.2 1.8-2 0.6-4.2 1.3-6.7 1.9-4.9 1.3-10.6 2.3-16.8 3.1-6.1 0.7-12.7 1.1-19.2 1.1s-13.1-0.4-19.2-1.2c-6.1-0.8-11.9-1.9-16.8-3.1-2.5-0.6-4.7-1.3-6.7-1.9-2-0.7-3.7-1.3-5.2-1.9-2.9-1.2-4.5-2-4.5-2z" fill="#F9DE55" p-id="1588"></path></svg>