<svg t="1603890188386" class="icon" viewBox="0 0 1024 1024" version="1.1" xmlns="http://www.w3.org/2000/svg" p-id="3842" width="200" height="200"><path d="M856.106667 720.298667a306.645333 306.645333 0 0 1-63.786667 101.034666c60.714667 18.517333 45.866667 50.645333 45.866667 50.645334 26.965333 14.805333 25.258667 111.018667-123.989334 109.312-99.498667-1.109333-141.653333-29.013333-158.848-47.573334a401.664 401.664 0 0 1-38.528 2.048c-15.914667 0-31.488-1.194667-46.848-2.944-16.597333 18.517333-58.538667 47.36-159.530666 48.469334-149.034667 1.706667-150.741333-94.506667-123.776-109.312 0 0-16.256-34.56 52.522666-52.693334a303.317333 303.317333 0 0 1-65.450666-109.44c-62.378667 110.805333-92.458667 37.376-87.978667-47.488 4.010667-75.349333 70.4-160.981333 87.637333-181.930666a67.882667 67.882667 0 0 1-5.12-25.386667c0-18.346667 7.338667-35.072 19.328-47.616a49.92 49.92 0 0 1 22.314667-51.456c-0.085333-2.688-0.341333-5.290667-0.341333-8.021333C209.578667 179.370667 347.136 42.666667 516.778667 42.666667c169.728 0 307.2 136.704 307.2 305.28 0 5.12-0.298667 10.154667-0.554667 15.189333a49.792 49.792 0 0 1 13.354667 44.842667c11.818667 12.458667 19.328 28.8 19.328 47.061333 0 9.045333-1.92 17.621333-5.12 25.6 17.322667 21.290667 83.285333 106.88 87.253333 182.229333 4.352 82.56-23.722667 154.368-82.133333 57.429334z" p-id="3843"></path></svg>