<svg t="1595077798135" class="icon" viewBox="0 0 1024 1024" version="1.1" xmlns="http://www.w3.org/2000/svg" p-id="2839" width="200" height="200"><path d="M903.386 646.084l-2.18-13.081-4.361-15.262-2.18-6.54-2.18-8.721v-8.721l-2.18-8.721-4.361-8.721-4.36-8.721-6.541-13.081-4.36-10.902-4.361-10.9-4.36-8.722-4.361-8.72-8.721-8.722-8.721-13.081-10.901-17.442-2.18-4.36-2.18-2.18v-2.18l2.18-4.361 4.36-4.36 2.18-10.902 2.18-4.36V425.88l-2.18-6.54-2.18-6.542-2.18-8.72v-6.541l-4.36-6.54-2.181-6.542-2.18-6.54-4.36-4.36-4.361-6.541-2.18-4.36-2.18-2.181-2.18-15.262-2.181-8.72-2.18-13.082-2.18-13.082-4.361-15.261 2.18-6.54-2.18-6.542-4.36-8.72-2.18-8.721-4.361-6.541-4.36-8.721-6.541-15.262-4.36-8.72-4.361-8.722-4.36-6.54v-8.721l-6.541-8.721-4.36-6.54-6.542-8.722-6.54-6.54-6.541-6.541-8.72-6.54-4.361-4.361-4.36-4.36-8.722-4.361-13.081-8.721-10.901-6.54-10.901-4.361-13.082-4.36-10.901-6.541-10.901-4.36-13.082-4.361-10.9-4.36-13.082-4.361-10.901-2.18-13.082-2.18-13.081-2.181-13.082 2.18h-52.325l-13.081 2.18-6.541 2.18-13.082 4.361-10.9 2.18-13.082 2.18-10.901 4.361-10.901 4.36h-8.721l-10.902 4.361-8.72 4.36-8.721 4.361-8.721 4.36-8.721 4.36-8.721 6.542-4.36 6.54-13.082 8.721-8.721 10.901-8.72 13.082-8.722 8.72-6.54 10.902-6.541 8.72-4.36 8.722-4.361 4.36-4.36 4.36-4.361 8.722-4.36 8.72-4.361 8.721-4.36 8.721-2.18 8.721-4.361 6.541-2.18 8.72-2.18 6.542-4.361 13.081-2.18 13.081-2.18 10.902-2.18 8.72v17.442l-4.361 2.18-2.18 4.361-2.18 4.36-2.181 4.361 2.18 6.54-2.18 6.541-2.18 6.541v10.901l-4.36 8.721-4.361 6.54-2.18 6.542-2.18 4.36-2.18 6.54v23.983l2.18 6.541 2.18 4.36-4.36 2.18-6.542 4.361-10.9 10.901-6.541 6.541-4.36 4.36-4.361 4.361-4.36 4.36-8.722 8.721-6.54 8.721-4.36 6.541-6.542 10.901-8.72 8.721-6.541 10.901-4.36 8.721-4.361 10.901-4.36 8.721-4.361 10.901-4.36 8.721v6.541l-4.361 10.901-2.18 6.54-2.18 8.722-2.18 8.72v47.966l4.36 13.081v4.36l2.18 4.361 2.18 4.36 2.18 4.361 2.18 4.36 2.18 2.18 2.181 2.181v2.18h4.36l4.361-2.18 4.36-2.18 6.541-4.36 4.36-4.361 6.541-2.18 4.36-4.36 4.361-4.361 4.36-4.36 4.361-6.541 4.36-4.36 2.181-4.361 4.36-6.541v-4.36l2.18-2.18v-2.181h2.18l2.181-2.18v2.18h2.18l2.18 8.721 2.18 8.72 4.361 8.722 4.36 6.54 2.181 10.902 4.36 6.54 4.36 6.541v6.54l4.361 4.361 2.18 4.36 8.722 10.902 8.72 8.72 6.541 6.541 6.54 6.541 6.542 8.721 8.72 6.54 4.361 2.181 2.18 2.18v2.18h-2.18l-2.18 2.18h-10.901l-4.36 2.181h-17.443l-4.36 4.36-4.36 2.18-4.361 2.18-2.18 2.181-4.36 2.18h-2.181l-4.36 4.36-2.18 2.181-2.181 4.36-2.18 4.361-2.18 4.36-2.18 4.36v8.722l-2.18 4.36v15.262l2.18 4.36 2.18 4.36 2.18 4.361 2.18 2.18 2.18 4.361 2.18 2.18h6.541l4.36 4.36 6.541 4.361 8.721 4.36 6.54 4.361 8.722 4.36h8.72l8.722 4.361h10.9l10.902 2.18 8.721 2.18h10.901l21.802 4.361h65.407l8.721-2.18h6.541l6.54-2.18 13.082-2.18 6.54-2.18 8.722-2.181 13.081-6.54 6.54-2.181 4.361-4.36 10.902-4.361 10.9-4.36 4.361-4.361 4.36-4.36 8.722 2.18h30.523l4.36 2.18 4.36 2.18 6.541 2.18 4.36 2.18 13.082 4.361 13.082 4.36 13.081 4.361 13.081 4.36 13.082 2.18 13.081 2.181 13.082 2.18 13.081 2.18 13.081 2.18h61.047l13.081-2.18 10.902-2.18 8.72-2.18 10.902-2.18 8.72-2.18 4.361-2.18 4.36-2.18 8.721-4.361 6.541-4.36 6.54-4.361 4.361-4.36 4.36-4.361 4.361-2.18 2.18-4.36 4.36-4.361 4.361-4.36 2.18-2.181 2.18-4.36 2.181-4.361v-10.901l-2.18-4.36-2.18-4.361v-4.36l-4.36-4.361-2.181-4.36-4.36-4.36-13.082 4.36-6.54-6.541-8.722-4.36-8.72-4.361-8.721-8.721-19.623-10.901-4.36-4.36h-2.18l-2.18-2.18 10.9-10.902 4.361-4.36 4.36-4.361 4.361-10.901 6.54-8.721 4.361-8.721 4.36-8.72 6.541-17.443 4.36-15.261 4.361-8.721 2.18-4.36 2.18-4.361 2.181-2.18h2.18l4.36 10.9 4.361 10.902 4.36 4.36 4.361 4.36 4.36 6.541 4.361 4.36 4.36 4.361 2.18 4.36 4.361 2.181 2.18 2.18h2.18l4.361 4.36h10.901l2.18-2.18 4.361-2.18 2.18-2.18 4.36-4.36 2.18-4.36 4.361-2.181 2.18-4.36 2.18-4.361 2.181-4.36 2.18-4.361 2.18-10.901 4.361-10.901v-10.901l2.18-6.541v-17.442l-15.261-6.54z" p-id="2840"></path></svg>