<svg t="1607951199802" class="icon" viewBox="0 0 1024 1024" version="1.1" xmlns="http://www.w3.org/2000/svg" p-id="1960" width="200" height="200"><path d="M773.2100831 419.62198011l-6.49234059-7.32685546 0.04161016-9.81768578c0.36062138-65.46896141-9.81768579-174.65401792-82.04020713-249.1073061-41.30617341-42.59724416-96.99328-64.19753989-165.51134138-64.1975399-72.07341827 0-130.40045827 20.32193919-173.35832381 60.39830124-57.36191548 53.50950829-87.62637094 131.03963654-89.94613728 253.59311238l-0.1652848 9.24439026-6.02538216 7.00668841c-73.13910067 150.15950448-100.18339217 320.79120706-69.58836711 339.08233932s70.02065044-47.6147358 70.02065044-47.6147358 10.26152748 33.51929453 32.99223251 72.41670208c21.4523485 36.70362751 39.24184719 58.98933503 39.24184721 58.98933503l-27.12173264 13.31525079c-39.94575238 20.96111746-47.57428148 34.7860927-45.95264112 40.96982461 7.98915048 30.38813008 90.46164092 24.85051146 127.52473397 24.85051148 40.3595423 0 80.37117743-3.97839351 112.70573827-11.20353524l2.90115273-0.63917827 2.94623041 0.04161016c4.57480579 0.05894773 12.03111506 0.12945383 20.15665438 0.12945382 5.63355316 0 11.59883175-0.04045432 17.6057205-0.13523301l1.94643077 0.04161015 1.40318701 0.18262237c36.39501884 4.84064846 75.80215083 7.40314074 113.94826385 7.40314073 32.3056649 0 63.03823464-1.75109418 86.70285657-4.65109108 24.38239718-2.9889964 35.6679969-9.3680649 36.95791182-15.06634497 3.45595484-15.28595414-7.14885643-25.40069023-45.37241058-45.62091569l-25.46541715-12.5408395s13.62963865-12.72346187 41.48532826-58.10165165 28.48215365-75.15719337 28.48215365-75.15719336 40.56759309 76.27026511 68.41634765 56.76434736 0.76978794-217.9563231-68.43946441-343.24913438z" fill="#2C2C2C" p-id="1961"></path></svg>