<svg t="1626181974352" class="icon" viewBox="0 0 1024 1024" version="1.1" xmlns="http://www.w3.org/2000/svg" p-id="2182" width="200" height="200"><path d="M511.113 688.423a343.768 343.768 0 1 1 343.7-343.768 344.246 344.246 0 0 1-343.7 343.768z m0-620.98a275.37 275.37 0 1 0 275.369 275.37 275.37 275.37 0 0 0-275.37-275.78v0.41zM69.115 1023.932h-3.208A33.448 33.448 0 0 1 35.6 987.685a481.93 481.93 0 0 1 298.783-410.256 33.448 33.448 0 0 1 27.1 60.958 413.054 413.054 0 0 0-259.328 355.236 33.448 33.448 0 0 1-33.039 30.309z m884.404 0a33.448 33.448 0 0 1-33.038-30.309 413.054 413.054 0 0 0-156.048-288.202 33.926 33.926 0 0 1 45.872-50.036 472.715 472.715 0 0 1 178.096 332.3 33.448 33.448 0 0 1-30.308 36.247h-4.574z" p-id="2183"></path></svg>