<svg t="1595076551682" class="icon" viewBox="0 0 1024 1024" version="1.1" xmlns="http://www.w3.org/2000/svg" p-id="2108" width="200" height="200"><path d="M658.432 379.392c9.216 0 18.944 0.512 28.16 1.536-25.088-117.248-150.528-204.288-293.376-204.288C233.472 176.64 102.4 285.696 102.4 423.936c0 79.872 43.52 145.408 116.224 196.608L189.44 708.096l101.376-51.2c36.352 7.168 65.536 14.848 101.888 14.848 9.216 0 17.92-0.512 27.136-1.024-5.632-19.456-9.216-39.936-9.216-60.928 0.512-127.488 109.568-230.4 247.808-230.4zM500.224 294.4c24.576 0 45.056 19.968 45.056 45.056s-19.968 45.056-45.056 45.056c-24.576 0-45.056-19.968-45.056-45.056 0-24.576 19.968-45.056 45.056-45.056zM296.448 385.536c-24.576 0-45.056-19.968-45.056-45.056 0-24.576 19.968-45.056 45.056-45.056 24.576 0 45.056 19.968 45.056 45.056 0 24.576-19.968 45.056-45.056 45.056zM921.6 607.232c0-116.224-116.224-211.456-246.784-211.456-138.24 0-247.296 94.72-247.296 211.456 0 116.736 109.056 210.944 247.296 210.944 29.184 0 58.368-7.168 87.04-14.336l79.872 43.52-22.016-72.704c58.368-44.032 101.888-101.888 101.888-167.424z m-323.072-32.768c-17.92 0-31.744-14.336-31.744-32.256s14.336-32.256 31.744-32.256c17.92 0 31.744 14.336 31.744 32.256 0.512 17.92-13.824 32.256-31.744 32.256z m160.256 2.048c-17.92 0-31.744-14.336-31.744-32.256s14.336-32.256 31.744-32.256c17.408 0 31.744 14.336 31.744 32.256s-14.336 32.256-31.744 32.256z" p-id="2109"></path></svg>