<svg t="1590065288846" class="icon" viewBox="0 0 1024 1024" version="1.1" xmlns="http://www.w3.org/2000/svg" p-id="2281" width="200" height="200"><path d="M371.227 119.452c-187.548 0-341.168 127.837-341.168 290.157 0 93.698 51.116 170.614 136.491 230.205l-34.123 102.654 119.257-59.831c42.687 8.474 76.915 17.144 119.497 17.144 10.702 0 21.329-0.527 31.85-1.37-6.653-22.834-10.521-46.706-10.521-71.482 0-148.969 128.002-269.927 290.066-269.927 11.048 0 21.991 0.813 32.859 2.017-29.517-137.44-176.454-239.567-344.208-239.567z m-110.828 230.34c-25.558 0-51.372-17.129-51.372-42.702 0-25.679 25.814-42.567 51.372-42.567s42.597 16.904 42.597 42.567c-0.015 25.573-17.039 42.703-42.597 42.703z m238.77 0c-25.574 0-51.238-17.129-51.238-42.702 0-25.679 25.664-42.567 51.237-42.567 25.694 0 42.703 16.904 42.703 42.567 0 25.573-17.024 42.703-42.703 42.703z" p-id="2282"></path><path d="M993.971 622.85c0-136.31-136.49-247.484-289.78-247.484-162.32 0-290.172 111.174-290.172 247.484 0 136.612 127.852 247.56 290.172 247.56 33.972 0 68.215-8.55 102.353-17.114l93.593 51.237-25.663-85.27C942.945 767.921 993.97 699.796 993.97 622.85z m-383.87-42.627c-16.994 0-34.138-16.873-34.138-34.108 0-17.023 17.144-34.153 34.138-34.153 25.814 0 42.703 17.13 42.703 34.153 0 17.235-16.889 34.108-42.703 34.108z m187.668 0c-16.873 0-33.897-16.873-33.897-34.108 0-17.023 17.024-34.153 33.897-34.153 25.558 0 42.702 17.13 42.702 34.153 0 17.235-17.144 34.108-42.702 34.108z" p-id="2283"></path></svg>