<svg t="1600347089367" class="icon" viewBox="0 0 1024 1024" version="1.1" xmlns="http://www.w3.org/2000/svg" p-id="3097" width="200" height="200"><path d="M971.662062 613.525774c0-129.284245-129.370945-234.632047-274.608001-234.632047-153.842038 0-274.976476 105.347802-274.976476 234.632047 0 129.47932 121.134439 234.624822 274.976476 234.624822 32.180174 0 64.671022-8.099231 97.017371-16.227362l88.665265 48.595386-24.341043-80.840584C923.326776 751.017625 971.662062 686.426078 971.662062 613.525774zM607.89027 573.07297c-16.104537 0-32.317449-16.017837-32.317449-32.368024 0-16.104537 16.205687-32.317449 32.317449-32.317449 24.471093 0 40.452805 16.205687 40.452805 32.317449C648.33585 557.062358 632.354138 573.07297 607.89027 573.07297zM785.719325 573.07297c-15.981712 0-32.100699-16.017837-32.100699-32.368024 0-16.104537 16.118987-32.317449 32.100699-32.317449 24.232668 0 40.467255 16.205687 40.467255 32.317449C826.18658 557.062358 809.951993 573.07297 785.719325 573.07297z" p-id="3098"></path><path d="M375.66415 130.570296c-177.74958 0-323.318987 121.134439-323.318987 274.940351 0 88.780865 48.472561 161.702843 129.342045 218.260185l-32.295774 97.299146 113.020758-56.701842c40.467255 7.983631 72.900303 16.212912 113.251958 16.212912 10.143907 0 20.20834-0.4913 30.193297-1.278826-6.33633-21.617216-9.970507-44.282057-9.970507-67.734425 0-141.292203 121.278939-255.902462 274.846426-255.902462 10.505158 0 20.865815 0.736951 31.168673 1.892951C673.854569 227.334792 534.607042 130.570296 375.66415 130.570296zM270.612573 348.81603c-24.189318 0-48.674861-16.212912-48.674861-40.44558 0-24.355493 24.492768-40.32998 48.674861-40.32998 24.254343 0 40.337205 15.974487 40.337205 40.32998C310.949778 332.603119 294.866916 348.81603 270.612573 348.81603zM496.914189 348.81603c-24.232668 0-48.588161-16.212912-48.588161-40.44558 0-24.355493 24.355493-40.32998 48.588161-40.32998 24.312143 0 40.44558 15.974487 40.44558 40.32998C537.359769 332.603119 521.233557 348.81603 496.914189 348.81603z" p-id="3099"></path></svg>