<svg t="1623847710595" class="icon" viewBox="0 0 1024 1024" version="1.1" xmlns="http://www.w3.org/2000/svg" p-id="860" width="200" height="200"><path d="M181.248 306.688s391.168 240.128 344.576 436.736c0 0-356.352-118.784-344.576-436.736z" fill="#359A60" p-id="861"></path><path d="M541.696 772.608l-23.552-7.68c-3.584-1.024-371.712-128-359.936-458.752l1.536-38.4 32.768 19.968c16.384 10.24 404.992 250.88 354.304 460.8l-5.12 24.064zM204.288 348.672c16.384 221.184 227.84 331.264 302.592 363.008 2.048-129.536-190.976-287.744-302.592-363.008z" fill="#262626" p-id="862"></path><path d="M53.76 377.856s96.256 443.392 507.392 443.392c0.512 0-121.856-438.272-507.392-443.392z" fill="#33AC64" p-id="863"></path><path d="M561.152 843.776c-424.448 0-528.384-456.192-529.408-460.8L25.6 355.328l28.16 0.512c397.824 5.12 527.872 455.168 528.896 459.776l8.192 28.672-29.696-0.512c0.512 0 0 0 0 0zM83.456 401.92c27.648 93.184 137.728 377.856 446.464 395.776-34.304-92.672-160.768-373.76-446.464-395.776z" fill="#262626" p-id="864"></path><path d="M838.656 335.36s-378.368 259.584-321.536 453.632c0 0 349.696-136.704 321.536-453.632z" fill="#359A60" p-id="865"></path><path d="M502.784 819.2l-7.168-23.552c-60.928-207.36 314.368-467.456 330.24-478.72l31.744-22.016 3.584 38.4c29.184 329.728-331.776 475.136-335.872 476.672l-22.528 9.216z m314.88-440.832c-107.008 80.896-291.84 248.832-283.136 378.368 72.704-36.352 278.528-157.184 283.136-378.368z" fill="#262626" p-id="866"></path><path d="M972.288 387.584s-453.12 210.432-427.008 428.544c0.512 0 399.872-83.968 427.008-428.544z" fill="#33AC64" p-id="867"></path><path d="M526.336 843.264l-3.072-24.576c-27.648-231.936 420.864-442.88 439.808-451.584l34.816-16.384-3.072 38.4c-28.16 357.376-440.32 448-444.928 449.024l-23.552 5.12z m418.304-416.768c-99.84 51.712-366.08 204.8-377.344 360.448 82.944-24.576 333.312-117.76 377.344-360.448z" fill="#262626" p-id="868"></path><path d="M504.832 198.144c24.064 0 47.616 11.776 60.928 35.84l267.776 488.96c25.088 46.08-8.192 102.912-60.928 102.912H236.544c-52.736 0-86.016-56.32-60.928-102.912l268.288-488.96c13.312-24.064 36.864-35.84 60.928-35.84m0-56.32c-46.08 0-88.064 25.088-110.08 65.024l-268.288 488.96c-21.504 39.424-20.992 86.016 2.048 124.416s63.488 61.44 108.032 61.44h536.064c45.056 0 85.504-23.04 108.032-61.44 23.04-38.4 23.552-84.992 2.048-124.416l-267.776-488.96c-22.016-40.448-64.512-65.024-110.08-65.024z" fill="#262626" p-id="869"></path><path d="M407.04 552.96c-2.048 0-3.584 0-5.632-0.512-19.968-2.56-31.744-19.968-32.768-22.016-3.584-5.12-2.048-12.288 3.072-15.36 5.12-3.584 12.288-2.048 15.36 3.072 2.048 3.072 9.216 10.752 17.408 12.288 5.632 0.512 11.776-1.536 17.92-7.168 4.608-4.096 11.776-3.584 15.872 1.024 4.096 4.608 3.584 11.776-1.024 15.872-9.216 8.704-19.456 12.8-30.208 12.8z" fill="#F9E39E" p-id="870"></path><path d="M564.736 226.816L849.92 721.92c26.624 46.08-6.656 103.936-59.904 103.936H219.136c-53.248 0-86.528-57.856-59.904-103.936l285.696-494.592c26.624-46.592 93.184-46.592 119.808-0.512z" fill="#FAF7BD" p-id="871"></path><path d="M296.448 473.088l-166.912 249.344c-26.624 46.08 6.656 103.936 59.904 103.936l361.472-0.512c-124.416-71.168-224.256-295.936-254.464-352.768z" fill="#3AB26C" p-id="872"></path><path d="M408.576 614.4c-2.048 0-3.584 0-5.632-0.512-19.968-2.56-31.744-19.968-32.768-22.016-3.584-5.12-2.048-12.288 3.072-15.36 5.12-3.584 12.288-2.048 15.36 3.072 2.048 3.072 9.216 10.752 17.408 12.288 5.632 1.024 11.776-1.536 17.92-7.168 4.608-4.096 11.776-3.584 15.872 1.024 4.096 4.608 3.584 11.776-1.024 15.872-9.216 8.192-19.456 12.8-30.208 12.8zM400.384 552.96c-2.048 0-3.584 0-5.632-0.512-19.968-2.56-31.744-19.968-32.768-22.016-3.584-5.12-2.048-12.288 3.072-15.36 5.12-3.584 12.288-2.048 15.36 3.072 2.048 3.072 9.216 10.752 17.408 12.288 5.632 0.512 11.776-1.536 17.92-7.168 4.608-4.096 11.776-3.584 15.872 1.024 4.096 4.608 3.584 11.776-1.024 15.872-9.728 8.704-19.968 12.8-30.208 12.8z" fill="#F9E39E" p-id="873"></path><path d="M492.032 780.288C312.32 768 211.968 571.904 207.872 563.2l30.208-15.36c1.024 2.048 95.744 187.392 256.512 198.144l-2.56 34.304z" fill="#2D9556" p-id="874"></path><path d="M193.024 843.776l-29.184-17.408c3.072-4.608 73.216-119.296 265.728-170.496l8.704 32.768c-179.712 48.128-244.736 154.112-245.248 155.136z" fill="#2D9556" p-id="875"></path><path d="M290.816 480.256c1.536 0 3.584 1.024 4.608 2.56 36.864 65.024 129.536 274.944 255.488 343.04H199.68c-56.32 0-91.648-57.856-63.488-103.936L286.72 482.816c1.024-1.536 2.56-2.56 4.096-2.56m0-56.32c-21.504 0-40.96 10.752-52.224 29.184l-150.016 239.104v0.512c-23.552 38.4-24.576 84.992-2.56 123.904 22.528 40.448 66.048 65.536 113.664 65.536l351.232-0.512h223.232l-196.608-105.472c-91.136-48.64-168.96-198.656-210.944-279.04-8.704-16.384-15.872-30.72-22.528-41.984-10.752-19.456-31.232-31.232-53.248-31.232z" fill="#262626" p-id="876"></path><path d="M723.456 502.272c-78.336 149.504-253.952 300.544-285.696 323.584h352.256c53.248 0 87.04-57.856 59.904-103.936l-126.464-219.648z" fill="#3AB26C" p-id="877"></path><path d="M499.712 871.424l-8.192-32.768c222.72-56.832 309.248-243.2 310.272-245.248l30.72 13.824c-3.584 8.192-94.208 203.264-332.8 264.192z" fill="#2D9556" p-id="878"></path><path d="M722.432 860.16l-32.768-7.68c34.304-148.48-28.672-298.496-29.184-300.032l31.232-13.312c2.048 6.656 67.584 161.792 30.72 321.024z" fill="#2D9556" p-id="879"></path><path d="M623.104 547.328c-2.048 0-3.584 0-5.632-0.512-19.968-2.56-31.744-19.968-32.768-22.016-3.584-5.12-2.048-12.288 3.072-15.36 5.12-3.584 12.288-2.048 15.36 3.072 2.048 3.072 9.216 10.752 17.408 12.288 5.632 0.512 11.776-1.536 17.92-7.168 4.608-4.096 11.776-3.584 15.872 1.024 4.096 4.608 3.584 11.776-1.024 15.872-9.216 8.704-19.456 12.8-30.208 12.8zM514.048 690.688c-2.048 0-3.584 0-5.632-0.512-19.968-2.56-31.744-19.968-32.768-22.016-3.584-5.12-2.048-12.288 3.072-15.36 5.12-3.584 12.288-2.048 15.36 3.072 2.048 3.072 9.216 10.752 17.408 12.288 5.632 0.512 11.776-1.536 17.92-7.168 4.608-4.096 11.776-3.584 15.872 1.024 4.096 4.608 3.584 11.776-1.024 15.872-9.728 8.704-19.968 12.8-30.208 12.8zM624.64 611.84c-2.048 0-3.584 0-5.632-0.512-19.968-2.56-31.744-19.968-32.768-22.016-3.584-5.12-2.048-12.288 3.072-15.36 5.12-3.584 12.288-2.048 15.36 3.072 2.048 3.072 9.216 10.752 17.408 12.288 5.632 0.512 11.776-1.536 17.92-7.168 4.608-4.096 11.776-3.584 15.872 1.024 4.096 4.608 3.584 11.776-1.024 15.872-9.216 8.192-19.456 12.8-30.208 12.8z" fill="#F9E39E" p-id="880"></path><path d="M723.456 517.632c4.096 0 8.192 2.048 10.752 5.632l119.296 198.144c27.648 46.08-7.168 103.936-62.976 103.936H438.272c31.744-21.504 210.432-159.232 273.92-300.544 1.536-4.608 6.144-7.168 11.264-7.168m0-55.808c-27.136 0-51.712 15.872-62.976 40.448-55.296 121.856-217.088 251.904-254.464 277.504l-149.504 102.912H790.016c47.104 0 90.624-25.088 113.152-65.024 22.016-39.424 21.504-85.504-2.048-124.416l-119.296-198.144c-12.288-20.992-34.304-33.28-58.368-33.28z" fill="#262626" p-id="881"></path><path d="M475.136 344.064c-2.048 0-4.608 0-6.656-0.512-19.968-3.584-30.72-20.992-32.256-23.04-3.072-5.12-1.536-12.288 4.096-15.36 5.12-3.072 12.288-1.536 15.36 3.584 2.048 3.072 8.704 11.264 16.896 12.8 5.632 1.024 11.776-1.024 17.92-6.656 4.608-4.096 11.776-3.072 15.872 1.536 4.096 4.608 3.072 11.776-1.536 15.872-9.728 7.68-19.456 11.776-29.696 11.776zM513.024 263.68c-2.048 0-4.608 0-6.656-0.512-19.968-3.584-30.72-20.992-32.256-23.04-3.072-5.12-1.536-12.288 3.584-15.36 5.12-3.072 12.288-1.536 15.36 3.584 2.048 3.072 8.704 11.264 16.896 12.8 5.632 1.024 11.776-1.024 17.92-6.656 4.608-4.096 11.776-3.072 15.872 1.536 4.096 4.608 3.072 11.776-1.536 15.872-9.216 7.68-18.944 11.776-29.184 11.776zM566.784 342.016c-2.048 0-4.608 0-6.656-0.512-19.968-3.584-30.72-20.992-32.256-23.04-3.072-5.12-1.536-12.288 4.096-15.36 5.12-3.072 12.288-1.536 15.36 3.584 2.048 3.072 8.704 11.264 16.896 12.8 5.632 1.024 11.776-1.024 17.92-6.656 4.608-4.096 11.776-3.072 15.872 1.536 4.096 4.608 3.072 11.776-1.536 15.872-9.728 7.68-19.456 11.776-29.696 11.776zM559.616 417.792c-17.92 0-31.744-12.288-33.28-13.824-4.608-4.096-4.608-11.264-0.512-15.872 4.096-4.608 11.264-4.608 15.872-0.512 2.56 2.56 11.264 8.192 19.456 7.68 5.632-0.512 10.752-4.608 15.36-11.264 3.584-5.12 10.752-6.144 15.872-2.56s6.144 10.752 2.56 15.872c-8.704 12.288-19.456 19.456-31.744 20.48h-3.584zM441.344 413.184c-6.656 0-12.288-1.536-17.92-4.608-17.92-9.216-23.04-29.696-23.552-31.744-1.536-6.144 2.048-12.288 8.192-13.824 6.144-1.536 12.288 2.048 13.312 8.192 1.024 3.584 4.608 13.312 12.288 16.896 5.12 2.56 11.264 2.048 18.944-1.024 5.632-2.048 12.288 0.512 14.848 6.144 2.048 5.632-0.512 12.288-6.144 14.848-7.168 4.096-13.824 5.12-19.968 5.12zM608.256 481.792c-16.896 0-29.696-10.24-31.232-11.776-4.608-4.096-5.632-11.264-1.536-15.872 4.096-4.608 10.752-5.632 15.872-1.536 2.56 2.048 11.776 7.68 19.968 6.144 5.632-1.024 10.24-5.12 14.848-12.288 3.072-5.12 10.24-7.168 15.36-3.584 5.12 3.072 7.168 10.24 3.584 15.36-7.68 12.8-17.92 20.48-30.208 22.528-2.048 0.512-4.096 1.024-6.656 1.024zM514.56 492.544c-2.048 0-3.584 0-5.632-0.512-19.968-2.56-31.744-19.968-32.768-22.016-3.584-5.12-2.048-12.288 3.072-15.36 5.12-3.584 12.288-2.048 15.36 3.072 2.048 3.072 9.216 10.752 17.408 12.288 5.632 0.512 11.776-1.536 17.92-7.168 4.608-4.096 11.776-3.584 15.872 1.024 4.096 4.608 3.584 11.776-1.024 15.872-9.728 8.704-19.968 12.8-30.208 12.8zM510.464 550.4c-2.048 0-3.584 0-5.632-0.512-19.968-2.56-31.744-19.968-32.768-22.016-3.584-5.12-2.048-12.288 3.072-15.36 5.12-3.584 12.288-2.048 15.36 3.072 2.048 3.072 9.216 10.752 17.408 12.288 5.632 0.512 11.776-1.536 17.92-7.168 4.608-4.096 11.776-3.584 15.872 1.024 4.096 4.608 3.584 11.776-1.024 15.872-9.728 8.704-19.968 12.8-30.208 12.8zM512 620.544c-2.048 0-3.584 0-5.632-0.512-19.968-2.56-31.744-19.968-32.768-22.016-3.584-5.12-2.048-12.288 3.072-15.36 5.12-3.584 12.288-2.048 15.36 3.072 2.048 3.072 9.216 10.752 17.408 12.288 5.632 0.512 11.776-1.536 17.92-7.168 4.608-4.096 11.776-3.584 15.872 1.024 4.096 4.608 3.584 11.776-1.024 15.872-9.728 8.704-19.456 12.8-30.208 12.8zM412.672 487.424c-2.048 0-3.584 0-5.632-0.512-19.968-2.56-31.744-19.968-32.768-22.016-3.584-5.12-2.048-12.288 3.072-15.36 5.12-3.584 12.288-2.048 15.36 3.072 2.048 3.072 9.216 10.752 17.408 12.288 5.632 0.512 11.776-1.536 17.92-7.168 4.608-4.096 11.776-3.584 15.872 1.024 4.096 4.608 3.584 11.776-1.024 15.872-9.216 8.192-19.456 12.8-30.208 12.8z" fill="#F9E39E" p-id="882"></path></svg>