<svg t="1623849102864" class="icon" viewBox="0 0 1024 1024" version="1.1" xmlns="http://www.w3.org/2000/svg" p-id="1013" width="200" height="200"><path d="M348.27 898.859c-162.05 30.18-249.353-104.968-297.969-95.915 48.615-9.054 58.542-162.31 220.593-192.489 372.716-69.413 686.889 23.484 686.889 23.484S720.985 829.446 348.27 898.859z" fill="#419646" p-id="1014"></path><path d="M350.571 907.436c-47.781 8.898-93.307 4.811-139.182-12.496-38.956-14.697-71.277-36.473-97.248-53.97-26.578-17.906-47.571-32.05-61.539-29.449L48 794.367c13.968-2.601 25.735-22.846 40.632-48.477 14.557-25.045 32.674-56.213 60.411-83.331 32.664-31.934 71.769-51.783 119.549-60.681 85.436-15.911 174.882-24.572 265.856-25.741 72.766-0.935 146.672 2.893 219.664 11.379 124.401 14.463 204.288 37.826 205.08 38.06l16.808 4.97-12.668 10.46c-0.597 0.493-60.942 49.972-166.111 107.189-61.708 33.572-126.624 63.253-192.942 88.221-82.913 31.215-168.272 55.109-253.708 71.02zM74.609 798.418c13.995 5.727 29.558 16.212 47.346 28.197 51.718 34.843 122.548 82.564 224.014 63.667 191.422-35.65 346.037-105.348 442.035-157.54 75.263-40.918 127.236-77.756 150.477-95.208-29.948-7.546-95.8-22.441-184.811-32.765-113.535-13.17-289.053-21.386-480.475 14.264-101.466 18.896-141.167 87.202-170.156 137.076-9.971 17.154-18.694 32.162-28.43 42.309z" fill="#286432" p-id="1015"></path><path d="M165.083 831.718c19.297 4.533 38.759 7.794 58.185 9.473a383.63 383.63 0 0 0 57.941 0.662c19.137-1.206 38.054-3.811 56.604-7.514l27.833-5.425 27.744-5.74a2960.467 2960.467 0 0 0 110.19-25.559 2938.646 2938.646 0 0 0 216.212-63.428c17.748-6.005 35.461-12.101 53.065-18.457a2401.07 2401.07 0 0 0 52.613-19.542c17.455-6.706 34.826-13.605 52.082-20.753 17.248-7.164 34.427-14.486 51.339-22.35-16.953 7.781-34.17 15.02-51.454 22.099-17.293 7.063-34.699 13.877-52.187 20.498a2400.298 2400.298 0 0 1-52.709 19.283c-17.635 6.27-35.377 12.279-53.153 18.197a2939.897 2939.897 0 0 1-216.482 62.365 2962.83 2962.83 0 0 1-110.272 25.017l-27.758 5.604-27.845 5.288c-18.52 3.602-37.306 6.089-56.332 7.195a381.13 381.13 0 0 1-57.511-0.935c-19.265-1.758-38.548-5.082-57.686-9.671-19.155-4.546-38.112-10.513-57.139-16.467-5.732-1.765-11.477-3.533-17.266-5.138 4.399 0.476 8.808 0.997 13.219 1.505 18.041 2.138 36.155 3.986 54.208 4.743 36.118 1.598 71.926-0.781 106.879-6.351 17.511-2.724 34.712-6.415 52.014-9.758l25.92-5.136 25.821-5.483 25.82-5.483 25.729-5.787 25.72-5.815c8.582-1.911 17.096-4.041 25.647-6.051 68.371-16.203 136.283-33.855 203.786-52.667 33.767-9.362 67.389-19.141 100.932-29.13 33.536-10.009 66.963-20.322 100.186-31.161-33.287 10.674-66.774 20.82-100.367 30.661-33.601 9.821-67.278 19.432-101.098 28.625-67.609 18.474-135.616 35.786-204.067 51.645-8.561 1.967-17.086 4.053-25.677 5.921l-25.747 5.686-25.755 5.657-25.844 5.353-25.843 5.353-25.939 5.005c-17.313 3.256-34.546 6.868-51.984 9.468-34.854 5.344-70.479 7.5-106.369 5.71-17.947-0.855-35.932-2.79-53.962-5.028-7.42-0.896-14.856-1.823-22.32-2.518l859.508-164.419-67.436 12.219c-34.703 1.955-69.326 4.417-103.895 7.186-35.455 2.862-70.875 5.941-106.213 9.448-70.692 6.925-141.162 15.044-211.306 24.638-8.764 1.215-17.557 2.309-26.298 3.624l-26.244 3.862-26.238 3.891-26.164 4.199-26.165 4.199-26.078 4.548c-17.364 3.113-34.815 5.875-52.051 9.622-34.473 7.36-68.089 17.91-99.953 32.168-15.948 7.089-31.393 15.188-46.625 23.522-3.732 2.025-7.454 4.061-11.192 6.052 4.433-3.517 8.742-7.167 13.04-10.811 14.188-12.15 28.305-24.285 43.333-35.199 14.989-10.949 30.76-20.797 47.312-29.226 16.545-8.439 33.821-15.52 51.625-21.24 17.802-5.745 36.092-10.152 54.714-13.456l27.926-5.097 28.007-4.787a3062.12 3062.12 0 0 1 112.667-16.544c75.43-9.649 151.468-16.532 227.932-20.662 19.123-0.984 38.26-1.882 57.436-2.504 19.169-0.673 38.367-1.13 57.589-1.383 19.221-0.26 38.466-0.321 57.737-0.12 19.272 0.218 38.563 0.601 57.895 1.558-19.337-1.046-38.638-1.519-57.92-1.826-19.281-0.29-38.539-0.319-57.774-0.147-19.236 0.164-38.449 0.532-57.634 1.116-19.192 0.534-38.347 1.343-57.49 2.238-76.541 3.775-152.678 10.304-228.23 19.605a3066.979 3066.979 0 0 0-112.867 16.024l-28.063 4.659-27.985 4.969c-18.697 3.223-37.168 7.568-55.121 13.263-17.966 5.671-35.422 12.719-52.154 21.144-16.739 8.414-32.704 18.268-47.866 29.224-15.197 10.916-29.475 23.064-43.696 35.115-5.838 4.898-11.679 9.787-17.747 14.287 5.141-5.641 9.863-11.624 14.526-17.621 11.348-14.738 22.405-29.631 34.556-43.486 12.098-13.888 25.211-26.781 39.551-38.093a239.25 239.25 0 0 1 46.436-28.78c16.556-7.757 34.058-13.626 52.115-17.666 9.012-2.031 18.25-3.508 27.405-5.203l13.756-2.479 13.811-2.261a2014.168 2014.168 0 0 1 111.18-15.163 2029.273 2029.273 0 0 1 225.823-11.685c37.919 0.118 75.959 1.396 114.056 3.852 19.048 1.231 38.113 2.778 57.184 4.729 19.069 1.98 38.151 4.205 57.207 7.302-19.052-3.186-38.137-5.5-57.21-7.569-19.075-2.04-38.147-3.677-57.205-4.997a1866.824 1866.824 0 0 0-114.139-4.39 2033.328 2033.328 0 0 0-226.14 10.621A2018.397 2018.397 0 0 0 319.82 628.1l-13.844 2.198-13.79 2.415c-9.184 1.653-18.41 3.081-27.546 5.089-18.247 3.985-35.967 9.823-52.75 17.58a242.044 242.044 0 0 0-47.121 28.863c-14.56 11.362-27.878 24.325-40.142 38.258-12.314 13.897-23.512 28.822-34.888 43.439-5.714 7.276-11.488 14.498-17.875 20.955-3.189 3.228-6.582 6.198-10.232 8.703-0.579 0.38-1.165 0.748-1.755 1.108l-10.728 1.944 0.575 2.144 0.22 0.819 0.931 3.469 0.22 0.819 0.355 1.325 8.277-1.583c1.592 0.164 3.196 0.427 4.8 0.736 4.584 0.972 9.173 2.457 13.708 4.247 9.08 3.577 17.997 8.065 26.888 12.622 17.766 9.192 35.529 18.726 53.776 26.932 18.221 8.257 36.9 15.262 55.884 20.376 18.977 5.131 38.244 8.3 57.397 9.395 19.153 1.063 38.173 0.056 56.722-2.815 9.295-1.426 18.373-3.409 27.529-5.171l13.713-2.708 13.651-2.927a1951.146 1951.146 0 0 0 108.296-26.329c71.53-19.59 141.663-43.233 209.976-70.884a1671.123 1671.123 0 0 0 100.951-44.673c16.552-7.994 32.954-16.283 49.151-24.938 16.179-8.682 32.243-17.591 47.826-27.282-15.632 9.612-31.739 18.44-47.961 27.04-16.239 8.573-32.68 16.778-49.27 24.688a1671.946 1671.946 0 0 1-101.151 44.157c-68.431 27.302-138.651 50.584-210.233 69.809a1951.36 1951.36 0 0 1-108.348 25.778l-13.654 2.858-13.715 2.639c-9.151 1.716-18.266 3.658-27.459 5.019-18.405 2.753-37.244 3.655-56.191 2.511-18.948-1.176-37.983-4.4-56.735-9.562-18.759-5.147-37.217-12.161-55.264-20.436-18.078-8.226-35.697-17.781-53.499-27.092-7.287-3.774-14.62-7.514-22.159-10.796 7.771 1.915 15.535 4.259 23.302 6.614 19.008 5.856 38.116 11.777 57.425 16.265z m-66.171-47.989c15.17-8.42 30.455-16.552 46.257-23.692 31.56-14.352 64.896-25.038 99.164-32.567 17.107-3.834 34.546-6.679 51.875-9.874l26.029-4.673 26.119-4.325 26.119-4.325 26.195-4.018 26.203-3.989c8.728-1.357 17.508-2.493 26.259-3.751 70.041-9.933 140.423-18.394 211.038-25.662 35.299-3.679 70.683-6.93 106.105-9.963 34.498-2.934 69.053-5.56 103.691-7.683L82.584 792.598c5.504-2.881 10.914-5.889 16.328-8.869z" fill="#C8E678" p-id="1016"></path><path d="M427.888 646.194a234.112 41.806 0 1 0 468.224 0 234.112 41.806 0 1 0-468.224 0Z" fill="#286432" opacity=".5" p-id="1017"></path><path d="M520.066 399.153c-54.958 93.068-97.594 199.253-80.046 229.646 33.097 57.326 410.689 56.601 443.741 0 5.594-9.581 5.055-26.93-0.057-49.141-90.845-4.246-295.601-109.876-363.638-180.505z" fill="#419646" p-id="1018"></path><path d="M806.01 403.353c-29.379 29.205-83.64 64.153-143.356 94.889 79.663 43.31 169.031 78.985 221.049 81.417-10.675-46.378-41.298-113.959-77.693-176.306z" fill="#419646" p-id="1019"></path><path d="M661.89 244.509c-34.746 0-93.123 72.172-141.824 154.645 29.078 30.185 83.13 66.763 142.588 99.089 59.716-30.736 113.977-65.684 143.356-94.889-49.148-84.195-108.821-158.845-144.12-158.845z" fill="#419646" p-id="1020"></path><path d="M888.94 584.089l0.074 0.003-1.237-5.371-0.711-3.09-0.024-0.001c-10.806-44.322-38.899-107.94-75.795-171.588l0.004-0.004-1.63-2.793-2.725-4.667-0.011 0.011c-24.899-42.133-51.412-79.979-74.978-106.98-28.541-32.7-52.098-49.281-70.016-49.281-17.66 0-40.812 16.085-68.813 47.809-23.449 26.566-48.904 62.505-73.803 104.168l-0.011-0.012-2.796 4.735-1.616 2.737 0.006 0.006c-27.628 47.113-50.997 95.399-65.929 136.274-8.032 21.987-13.302 40.999-15.664 56.509-2.631 17.276-1.576 30.175 3.136 38.336 18.89 32.718 131.281 44.587 221.786 44.81l2.765 0.003c52.97 0 103.806-3.748 143.427-10.588 46.504-8.028 74.427-19.537 82.994-34.208 5.466-9.366 5.988-25.104 1.567-46.818z m-197.836-75.604l-1.642-0.838c-0.69-0.353-1.381-0.706-2.071-1.061l-1.438-0.74a1098.407 1098.407 0 0 1-6.429-3.341l-0.553-0.29a1076.747 1076.747 0 0 1-7.378-3.906l0.383-0.202a1128.152 1128.152 0 0 0 5.308-2.802c1.663-0.884 3.318-1.768 4.963-2.654l0.105-0.056c1.656-0.892 3.303-1.785 4.941-2.678l0.327-0.178a971.035 971.035 0 0 0 4.716-2.592l0.608-0.336c1.508-0.835 3.006-1.67 4.497-2.506l0.746-0.418a914.89 914.89 0 0 0 4.383-2.477l0.735-0.418c1.467-0.836 2.926-1.671 4.376-2.507l0.592-0.342a928.242 928.242 0 0 0 4.458-2.591l0.313-0.184a887.805 887.805 0 0 0 4.367-2.574l0.351-0.208a964.76 964.76 0 0 0 4.269-2.553l0.644-0.387a882.307 882.307 0 0 0 8.741-5.343l0.765-0.475a714.337 714.337 0 0 0 8.47-5.34l0.448-0.288a766.238 766.238 0 0 0 3.793-2.447l0.362-0.235a718.504 718.504 0 0 0 8.001-5.287l0.724-0.486a687.855 687.855 0 0 0 4.185-2.842 568.747 568.747 0 0 0 3.404-2.348l0.636-0.444c1.149-0.801 2.288-1.6 3.413-2.397l0.451-0.321a554.717 554.717 0 0 0 3.589-2.567 508.068 508.068 0 0 0 6.99-5.143l0.59-0.442a450.97 450.97 0 0 0 3.006-2.281l0.595-0.457c0.991-0.761 1.971-1.521 2.937-2.277l0.511-0.401a386.32 386.32 0 0 0 2.931-2.323l0.338-0.272c0.998-0.801 1.984-1.6 2.952-2.394l0.069-0.056c0.981-0.806 1.943-1.607 2.893-2.405l0.317-0.265a305.368 305.368 0 0 0 5.616-4.851l0.405-0.36c0.831-0.739 1.648-1.475 2.449-2.207l0.344-0.315a235.911 235.911 0 0 0 2.479-2.303 1043.611 1043.611 0 0 1 18.602 33.646l-0.728 0.885c-1.956 2.419-4.126 4.67-6.326 6.864-4.446 4.36-9.235 8.37-14.217 12.119l-3.754 2.787-3.825 2.694-3.87 2.627c-1.293 0.869-2.617 1.701-3.92 2.551a262.556 262.556 0 0 1-7.937 4.941l-1.997 1.211-2.02 1.176c-1.345 0.785-2.687 1.572-4.054 2.32-5.419 3.07-11.12 5.649-16.795 8.166a199.766 199.766 0 0 0-8.384 3.969c-1.37 0.71-2.743 1.406-4.098 2.142l-4.048 2.242a781.978 781.978 0 0 0-16.079 9.409l-8.109 4.913c-1.357 0.87-2.737 1.661-4.117 2.545l-0.264 0.166a1067.245 1067.245 0 0 1-7.399-3.625l-0.034-0.017a986.312 986.312 0 0 1-3.419-1.7l-1.415-0.709-2.154-1.082c-0.554-0.279-1.106-0.559-1.659-0.839-0.653-0.329-1.304-0.659-1.955-0.99z m160.478-7.358c-0.681 0.95-1.392 1.88-2.114 2.794a99.045 99.045 0 0 1-7.046 7.904l-1.863 1.879-1.903 1.839a168.316 168.316 0 0 1-3.87 3.596 153.462 153.462 0 0 1-3.934 3.504 150.046 150.046 0 0 1-4.003 3.401c-2.682 2.244-5.7 4.11-8.626 5.982a52.248 52.248 0 0 0-4.186 3 54.976 54.976 0 0 0-1.933 1.666 71.682 71.682 0 0 0-1.84 1.776 118.12 118.12 0 0 0-6.967 7.746l-1.695 2.103-1.707 2.185c-0.565 0.773-1.151 1.502-1.735 2.311l-0.893 1.211c-0.136 0.201-0.278 0.395-0.42 0.593-24.359-8.655-50.947-19.728-78.431-32.725 0.775-0.065 1.54-0.164 2.315-0.244a67.304 67.304 0 0 0 4.963-0.727c6.577-1.155 12.95-3.026 19.105-5.362l2.297-0.904c0.764-0.306 1.505-0.655 2.259-0.98 1.497-0.673 2.989-1.361 4.434-2.132 2.917-1.499 5.722-3.2 8.464-4.996 5.469-3.626 10.685-7.597 15.985-11.38 10.58-7.597 20.65-15.936 29.726-25.33l3.342-3.58c1.092-1.216 2.161-2.454 3.238-3.677l3.116-3.783c0.997-1.302 1.99-2.598 2.948-3.922 1.737-2.488 3.42-5.006 4.911-7.647 9.695 18.501 18.456 36.635 26.063 53.899z m-47.215 56.109c0.178-0.017 0.355-0.031 0.534-0.047 0.513-0.062 1.014-0.153 1.525-0.23 1.028-0.156 2.013-0.388 3-0.632 3.932-1.012 7.581-2.603 10.952-4.543a30.738 30.738 0 0 0 2.453-1.556 27.69 27.69 0 0 0 2.293-1.751c1.474-1.233 2.818-2.607 4.077-4.06 2.504-2.926 4.747-6.05 7.156-8.962a161.005 161.005 0 0 0 3.514-4.449 78.732 78.732 0 0 0 1.683-2.279c0.551-0.768 1.108-1.526 1.64-2.308a145.135 145.135 0 0 0 3.098-4.746l1.46-2.431 1.408-2.462c1.777-3.298 3.455-6.65 4.82-10.154 10.96 25.429 19.316 48.812 24.318 68.473-19.59-1.755-45.025-8.001-73.931-17.863zM661.89 248.689c15.18 0 37.213 16.051 63.717 46.418 23.575 27.011 50.19 65.109 75.143 107.539l-0.188 0.182-0.604 0.576c-0.25 0.238-0.501 0.477-0.755 0.716-0.203 0.192-0.409 0.384-0.615 0.577-0.259 0.242-0.518 0.485-0.781 0.728-0.206 0.191-0.414 0.383-0.623 0.574-0.266 0.244-0.532 0.489-0.801 0.734a325.596 325.596 0 0 1-1.464 1.324l-0.639 0.571c-0.283 0.252-0.567 0.505-0.854 0.758l-0.649 0.571a241.696 241.696 0 0 1-2.443 2.119l-0.654 0.56c-0.312 0.266-0.626 0.532-0.942 0.799l-0.652 0.55-0.983 0.823-0.642 0.535c-0.337 0.28-0.678 0.56-1.019 0.841l-0.644 0.529c-0.35 0.287-0.704 0.574-1.058 0.862l-0.626 0.508a293.543 293.543 0 0 1-1.718 1.38c-0.395 0.315-0.794 0.631-1.194 0.948l-0.552 0.437c-0.424 0.335-0.853 0.67-1.282 1.006-0.166 0.13-0.331 0.26-0.499 0.39-0.462 0.36-0.928 0.721-1.396 1.082l-0.411 0.318c-0.53 0.408-1.065 0.818-1.603 1.228l-0.231 0.177a469.696 469.696 0 0 1-11.78 8.678l-0.264 0.188a391.551 391.551 0 0 1-2.161 1.532 789.13 789.13 0 0 1-2.128 1.495c-0.552 0.385-1.105 0.771-1.662 1.157l-0.51 0.353a374.295 374.295 0 0 1-2.178 1.499 613.339 613.339 0 0 1-3.766 2.56l-0.614 0.413c-0.529 0.355-1.059 0.711-1.592 1.067l-0.637 0.425-1.593 1.058-0.655 0.433c-0.534 0.352-1.069 0.705-1.607 1.058l-0.661 0.433-1.624 1.06-0.669 0.435-1.647 1.066-0.667 0.43-1.659 1.064-0.689 0.44-1.686 1.073-0.666 0.422c-0.575 0.364-1.153 0.728-1.733 1.093l-0.649 0.408-1.782 1.115-0.622 0.388c-0.615 0.383-1.233 0.766-1.853 1.149l-0.569 0.352c-0.642 0.397-1.288 0.793-1.934 1.19l-0.517 0.318-2.033 1.241-0.44 0.268c-0.716 0.435-1.436 0.871-2.157 1.306l-0.341 0.206c-0.82 0.494-1.643 0.989-2.47 1.484l-0.036 0.021a879.784 879.784 0 0 1-10.407 6.129l-0.124 0.072a1289.687 1289.687 0 0 1-2.951 1.703c-0.719 0.413-1.439 0.827-2.163 1.24l-0.684 0.389c-0.655 0.373-1.31 0.747-1.968 1.12l-0.802 0.454-1.86 1.05-0.915 0.514-1.763 0.988-1.005 0.56-1.7 0.946-1.056 0.585-1.659 0.916a1122.492 1122.492 0 0 1-2.739 1.502l-1.153 0.629-1.601 0.871-1.187 0.643-1.596 0.862-1.194 0.642-1.602 0.858-1.218 0.65c-0.529 0.282-1.058 0.564-1.589 0.845l-1.248 0.662-1.56 0.824-1.292 0.68-1.57 0.823-1.274 0.666-1.579 0.822-1.307 0.678-0.507 0.262c-0.92-0.503-1.837-1.005-2.752-1.509l-0.198-0.109c-0.838-0.461-1.675-0.923-2.509-1.385-56.038-31.045-104.009-64.253-131.033-91.072l-0.145-0.145c-0.259-0.258-0.512-0.514-0.768-0.77 9.899-16.64 20.045-32.577 30.141-47.393a49.1 49.1 0 0 0 1.294 3.289c1.203 2.796 2.704 5.369 4.28 7.919 1.648 2.441 3.348 4.927 5.262 7.127 0.94 1.127 1.904 2.236 2.88 3.338 0.987 1.083 2.028 2.088 3.06 3.119a116.608 116.608 0 0 0 3.182 2.989c1.09 0.958 2.234 1.831 3.384 2.706 2.315 1.72 4.671 3.412 7.191 4.805 2.506 1.425 5.023 2.819 7.529 4.213 2.547 1.313 5.079 2.635 7.556 4.034 1.244 0.689 2.474 1.404 3.728 2.069l3.785 1.946 7.58 3.839c5.14 2.371 10.282 4.708 15.459 6.931l7.847 3.141 3.916 1.566c1.304 0.522 2.603 1.054 3.938 1.505l7.947 2.815c2.658 0.909 5.301 1.843 7.962 2.725l0.692-1.522c-2.374-1.495-4.766-2.94-7.143-4.409l-7.159-4.319c-4.731-2.942-9.411-5.942-14.097-8.898-1.185-0.715-2.317-1.519-3.473-2.28l-3.447-2.31c-2.297-1.537-4.615-3.032-6.893-4.582l-6.763-4.725-3.387-2.335c-1.118-0.792-2.202-1.628-3.303-2.439-2.199-1.625-4.343-3.327-6.472-5.038l-6.15-5.377c-1.037-0.872-2.083-1.732-3.089-2.621a77.083 77.083 0 0 0-3.124-2.539c-1.054-0.827-2.161-1.595-3.236-2.387a100.32 100.32 0 0 0-3.247-2.343l-3.343-2.244a133.075 133.075 0 0 0-5.013-3.371c-0.577-0.362-1.106-0.754-1.667-1.129a124.966 124.966 0 0 0-3.405-2.224c-2.227-1.514-4.557-2.989-6.848-4.532l-0.888-0.567c-0.297-0.189-0.562-0.396-0.858-0.586-0.581-0.387-1.156-0.787-1.764-1.173l-0.712-0.491c11.671-16.888 23.233-32.214 34.225-45.317a130.011 130.011 0 0 0 3.008 3.227 193.754 193.754 0 0 0 4.16 4.15c0.699 0.684 1.416 1.342 2.129 2.005 0.715 0.661 1.423 1.334 2.151 1.977 5.778 5.212 11.814 10.062 18.049 14.615a152.147 152.147 0 0 0 19.655 12.164l5.147 2.658 5.187 2.589 5.163 2.621 5.131 2.671c13.607 7.244 27.486 14.003 41.529 20.365 14.086 6.281 28.354 12.163 42.871 17.276l0.679-1.528c-3.334-1.911-6.685-3.77-10.018-5.653-3.362-1.82-6.65-3.791-9.949-5.726l-4.952-2.889-2.478-1.436-2.451-1.489-9.794-5.948c-3.264-1.978-6.483-4.04-9.722-6.054l-4.86-3.016-4.819-3.09c-3.219-2.048-6.449-4.068-9.653-6.135l-9.603-6.211c-3.209-2.052-6.321-4.272-9.448-6.457-3.123-2.193-6.215-4.434-9.31-6.665a226.661 226.661 0 0 0-9.481-6.37c-3.209-2.044-6.517-3.93-9.847-5.787a325.835 325.835 0 0 0-20.513-10.368c-4.636-2.098-9.317-4.136-14.159-5.96 0.966-1.12 1.929-2.229 2.885-3.312 25.975-29.428 47.603-44.982 62.547-44.982z m-3.684 418.65c-112.682-0.277-200.915-16.985-214.566-40.629-7.478-12.951-2.811-44.131 13.14-87.795 0.432-1.183 0.873-2.374 1.319-3.57a108.365 108.365 0 0 0 5.722 11.98l1.283 2.327c0.439 0.768 0.84 1.57 1.314 2.313 0.927 1.505 1.881 2.994 2.826 4.498l1.43 2.249c0.479 0.749 1.014 1.45 1.519 2.179 1.027 1.443 2.046 2.897 3.096 4.33 8.438 11.429 18.297 21.76 28.954 31.088l4.051 3.435 2.038 1.704c0.681 0.567 1.391 1.092 2.085 1.64 1.391 1.092 2.809 2.149 4.214 3.224l2.118 1.597 2.17 1.52c5.773 4.078 11.752 7.844 17.868 11.346l4.617 2.572 2.307 1.284c0.773 0.42 1.559 0.816 2.34 1.222l4.688 2.419c1.56 0.809 3.12 1.617 4.708 2.368l4.738 2.298c1.58 0.763 3.151 1.542 4.749 2.263l4.774 2.202 2.386 1.1c0.793 0.371 1.59 0.734 2.398 1.07a395.204 395.204 0 0 0 39.143 15.017 402.421 402.421 0 0 0 40.439 10.595c3.799 0.769 7.611 1.477 11.43 2.134-3.092 0.018-6.191 0.026-9.298 0.02z m144.748-10.463c-28.91 4.99-63.909 8.303-101.371 9.705a376.227 376.227 0 0 1-43.547-9.524 392.7 392.7 0 0 1-38.677-12.945 382.987 382.987 0 0 1-37.105-16.612c-0.76-0.372-1.506-0.77-2.249-1.175l-2.234-1.203-4.466-2.403c-1.502-0.774-2.937-1.673-4.399-2.518l-4.368-2.565a387.27 387.27 0 0 1-17.012-10.922 820.864 820.864 0 0 1-16.522-11.494l-2.057-1.442-2.02-1.488c-1.354-0.982-2.694-1.982-4.062-2.947-0.677-0.491-1.372-0.961-2.035-1.469l-1.996-1.516-4.017-3.005c-10.664-8.071-20.975-16.622-30.65-25.932-2.367-2.367-4.885-4.637-7.163-7.105l-3.527-3.639c-1.17-1.222-2.258-2.506-3.407-3.756l-1.72-1.882-0.862-0.944c-0.28-0.32-0.544-0.649-0.821-0.972-1.095-1.298-2.183-2.608-3.305-3.907-0.55-0.656-1.134-1.294-1.659-1.968l-1.586-2.024c-0.105-0.129-0.208-0.26-0.313-0.39 8.042-20.982 18.171-43.722 29.845-67.109a78.706 78.706 0 0 0 1.52 4.107l1.413 3.304c0.506 1.083 1.047 2.147 1.573 3.225 0.267 0.536 0.524 1.081 0.806 1.609l0.872 1.565c0.587 1.04 1.155 2.102 1.765 3.131 4.925 8.206 10.735 15.849 17.032 22.984l2.395 2.644a98.74 98.74 0 0 0 2.422 2.619c1.647 1.709 3.283 3.442 4.984 5.091 1.688 1.668 3.367 3.352 5.119 4.944l2.603 2.424 2.643 2.372 2.656 2.361 2.706 2.293 2.71 2.292 2.746 2.241 2.762 2.223 2.798 2.169 2.8 2.17 2.831 2.122c15.148 11.261 31.21 21.161 47.85 29.844 16.663 8.65 33.667 16.517 50.832 23.93a734.662 734.662 0 0 0 25.949 10.615 689.77 689.77 0 0 0 26.345 9.549c17.71 5.94 35.671 11.128 53.859 15.37 9.1 2.095 18.256 3.95 27.464 5.504 9.209 1.546 18.467 2.823 27.773 3.637 9.303 0.823 18.646 1.252 27.983 1.103 6.077-0.116 12.152-0.478 18.187-1.151-13.519 6.575-33.936 12.345-60.093 16.86z m77.196-30.185c-2.171 3.718-6.269 7.305-12.142 10.706-7.689 0.577-15.405 0.603-23.093 0.232-9.181-0.422-18.33-1.396-27.415-2.763-18.174-2.74-36.11-6.924-53.76-12.031-17.666-5.057-35.065-11.034-52.17-17.732a678.273 678.273 0 0 1-25.494-10.43 722.537 722.537 0 0 1-25.036-11.45c-2.059-1.011-4.131-1.994-6.179-3.026l-6.148-3.084c-2.04-1.045-4.063-2.124-6.095-3.185-2.028-1.067-4.036-2.172-6.054-3.255a653.434 653.434 0 0 1-23.823-13.654l-5.883-3.515c-1.949-1.19-3.886-2.397-5.843-3.571l-5.823-3.591-5.802-3.616c-7.721-4.839-15.389-9.739-22.955-14.776-15.124-10.076-29.836-20.746-43.445-32.648-6.797-5.956-13.241-12.276-19.174-19.077-0.741-0.85-1.439-1.728-2.164-2.595l-1.08-1.306-1.028-1.339c-0.681-0.897-1.383-1.787-2.053-2.697l-1.94-2.778a102.104 102.104 0 0 1-3.757-6.05c8.928-17.663 18.71-35.653 29.124-53.499 27.697 27.301 75.446 60.437 132.828 92.167l-0.032 0.016 6.942 3.774 1.943 1.057 0.004-0.002c1.894 1.025 3.795 2.048 5.705 3.067l0.242 0.129c2.347 1.251 4.706 2.498 7.074 3.738l1.118 0.585c2.022 1.056 4.051 2.108 6.088 3.156l1.8 0.926c1.755 0.899 3.517 1.794 5.282 2.685 25.241 12.764 50.372 24.241 74.375 33.966 0.533 0.216 1.068 0.435 1.599 0.649 1.454 0.585 2.901 1.161 4.346 1.733a711.362 711.362 0 0 0 9.964 3.87c0.622 0.237 1.251 0.483 1.871 0.717 0.608 0.229 1.21 0.452 1.815 0.679l1.033 0.386c1.769 0.659 3.528 1.307 5.274 1.94 0.487 0.177 0.97 0.349 1.455 0.524 1.271 0.458 2.535 0.909 3.792 1.354 0.433 0.153 0.873 0.314 1.304 0.465 33.709 11.841 61.799 18.599 83.567 20.109 5.539 25.729 3.021 37.598-0.157 43.04z" fill="#286432" p-id="1021"></path><path d="M428.425806 616.331314a125.666 86.438 68.821 1 0 161.199312-62.457131 125.666 86.438 68.821 1 0-161.199312 62.457131Z" fill="#286432" opacity=".5" p-id="1022"></path><path d="M128.235 788.292a244.765 43.708 0 1 0 489.53 0 244.765 43.708 0 1 0-489.53 0Z" fill="#E8DABF" opacity=".3" p-id="1023"></path><path d="M140.918 770.106c-34.603-59.935 154.644-401.777 231.966-401.777S639.405 710.93 604.85 770.106c-34.554 59.176-429.328 59.934-463.932 0z" fill="#FAEBD2" p-id="1024"></path><path d="M342.402 427.697c0 2.412-1.956 2.184-4.368 2.184s-4.368 0.228-4.368-2.184 2.184-6.552 4.368-6.552 4.368 4.139 4.368 6.552zM359.885 427.697c0 2.412-1.956 2.184-4.368 2.184-2.412 0-4.368 0.228-4.368-2.184s2.184-6.552 4.368-6.552 4.368 4.139 4.368 6.552zM394.851 427.697c0 2.412-1.956 2.184-4.368 2.184-2.412 0-4.368 0.228-4.368-2.184s2.184-6.552 4.368-6.552 4.368 4.139 4.368 6.552zM412.334 427.697c0 2.412-1.956 2.184-4.368 2.184s-4.368 0.228-4.368-2.184 2.184-6.552 4.368-6.552 4.368 4.139 4.368 6.552zM377.368 427.697c0 2.412-1.956 2.184-4.368 2.184s-4.368 0.228-4.368-2.184 2.184-6.552 4.368-6.552 4.368 4.139 4.368 6.552zM333.66 445.18c0 2.412-1.956 2.184-4.368 2.184-2.412 0-4.368 0.228-4.368-2.184s2.184-6.552 4.368-6.552 4.368 4.14 4.368 6.552zM316.177 445.18c0 2.412-1.956 2.184-4.368 2.184s-4.368 0.228-4.368-2.184 2.184-6.552 4.368-6.552 4.368 4.14 4.368 6.552zM351.143 445.18c0 2.412-1.956 2.184-4.368 2.184s-4.368 0.228-4.368-2.184 2.184-6.552 4.368-6.552 4.368 4.14 4.368 6.552zM386.109 445.18c0 2.412-1.956 2.184-4.368 2.184s-4.368 0.228-4.368-2.184 2.184-6.552 4.368-6.552c2.185 0 4.368 4.14 4.368 6.552zM403.593 445.18c0 2.412-1.956 2.184-4.368 2.184s-4.368 0.228-4.368-2.184 2.184-6.552 4.368-6.552 4.368 4.14 4.368 6.552zM421.076 445.18c0 2.412-1.956 2.184-4.368 2.184-2.412 0-4.368 0.228-4.368-2.184s2.184-6.552 4.368-6.552 4.368 4.14 4.368 6.552zM438.559 445.18c0 2.412-1.956 2.184-4.368 2.184s-4.368 0.228-4.368-2.184 2.184-6.552 4.368-6.552 4.368 4.14 4.368 6.552zM368.626 445.18c0 2.412-1.956 2.184-4.368 2.184s-4.368 0.228-4.368-2.184 2.184-6.552 4.368-6.552 4.368 4.14 4.368 6.552z" fill="#E8DABF" p-id="1025"></path><path d="M516.878 548.137c3.341-0.275 1.112 1.229 1.803 3.253 0.159 2.024-0.765 4.568 1.78 6.374-4.463 2.336-3.432 3.563 1.756 4.792 5.642 1.229-1.665 2.459 1.732 4.802-4.03 1.041 0.9 2.966 1.706 4.863 1.289 1.896 4.328 3.762 1.68 4.684-5.011-0.141-1.423 2.072 1.653 4.399 8.265 2.327 2.746 4.769 1.626 5.084-6.574 1.342 4.533 1.672 1.597 2.677-5.065 1.005 0.291 2.685 1.568 6.728-3.939-2.431 2.583-3.698 1.284-2.752-4.382 0.945-2.269 4.103 1.263 10.52 5.725 1.557 3.923 3.183 1.241 4.569 1.293 1.385 7.877 2.53 1.219 3.125 0.267 4.383 1.788 4.617 1.197 4.573 1.178-0.045 1.497-0.368 1.174 2.9 3.402 0.525 3.095 1.681 1.151 3.085-4.738 1.404-6.036 3.056 1.127 4.574 0.265 1.525-1.012-3.849 2.181 1.268 2.223 2.441 3.127 3.525 1.053 5.139 3.793 1.615 0.995 3.76 1.028 8.325-2.332 0.178 2.612 1.777 1.002 3.537-1.377 1.76-0.034 3.682 0.976 4.509 0.508 2.648 2.236 4.991 1.871 6.217 2.324 2.357 3.707 6.579 1.76 5.199 4.18 0.262 3.006 1.161 0.838 2.611-1.168 1.45 0.213 3.45 0.809 5.912 3.016-2.324 3.079-1.95 0.779-0.6 0.25 1.351 1.31 3.679 0.75 5.264 2.702-2.974-0.619 3.09 0.72 3.359 4.177-0.819 3.374-1.893 0.689 5.087-0.571-0.669 0.63 1.731 0.333 3.766 1.751 2.035-4.482 3.706 0.325 1.579-3.851 0.957 1.998-4.679 0.626 2.32-1.257 3.386-2.393 2.99 0.594 5.387-3.374 3.662 2.87 6.035 0.285 6.228 2.602 0.193 2.107-1.794 0.277-6.852 2.262-0.367 3.958 4.689 0.529 4.315-2.648 1.229 0.721 4.007 0.252 5.466 1.718 1.459 5.734 1.598 0.244-2.451-2.698-0.205-5.692-1.352 0.236-4.56-0.18 1.424-2.218 0.922 0.227 4.039-4.588-3.249 1.387-4.636 0.219-0.647 0.42-0.335-3.522 8.672 0.21 5.515 3.346-1.443 8.867-1.591 0.394-0.487-5.424 1.105 1.167 3.462 0.359 7.03 4.377-1.055 1.704 6.145 0.612 4.311-2.282 5.81 3.773 4.791 0.252 3.214 5.086-1.577 0.134-3.711 0.215-0.133 0.27-2.178-3.294-1.873 0.094 3.7-5.323 5.252-0.898 4.12 0.084 2.273 4.283 3.358 2.944-0.749 0.14 0.908-0.534 3.277 1.172-5.241 0.103-3.161-1.939-0.88 0.345 0.079 0.037 1.752 0.376 1.672 1.308 4.058 0.027 6.032-6.437 3.218 0.104 5.37 0.025 6.189 4.377 0.818-2.863 0.303-0.014-1.814-1.692-3.466 1.024 5.61-0.147 1.581 6.42-2.83-1.13-2.195-0.134-0.372 2.895 1.823-0.11 4.834-0.175 6.755-0.065 0.831-0.137 4.017-0.217 4.525-0.079 0.826-0.165 4.575-0.258 0.346-0.186 3.651-0.401 1.554-0.644 1.989-0.486 4.006-1.087-4.647-1.808 5.686-0.441 5.51-0.954-1.936-1.537 2.55-0.583 4.269-1.236 1.235-1.956 3.469-0.72 5.477-1.508 5.389-2.362 3.665-0.853 2.614-1.772 1.747-2.753 1.97-0.982-0.664-2.026-4.383-3.132 1.187-1.105 4.315-2.272 0.351-3.496 4.062-1.225 2.836-2.508 6.419-3.847 3.265-1.34-3.212-2.735 4.255-4.185 1.598-1.45 3.443-2.954 3.144-4.509 1.697-1.556-1.4-3.163-0.996-4.82 2.78-1.657 1.43-3.363 1.096-5.117 2.201-1.753 0.232-3.554 6.345-5.4 1.889-1.846 6.085-3.736 2.507-5.67 2.933-1.933-0.343-3.909-4.89-5.926 0.769-3.3 7.286-6.708 2.327-10.214 2.741-3.506 1.647-7.111 6.101-10.805 2.481-3.693-0.775-7.475-5.542-11.336 2.221-3.86 3.517-7.799-0.463-11.807 1.961-4.008-4.234-8.084 4.032-12.219 1.7-4.135-3.32-8.329 3.734-12.572 1.439-4.243 3.234-8.535-0.217-12.866 1.178-4.331-3.395-8.701 3.967-13.1 0.917-4.399 7.851-8.827-4.564-13.274 0.655-4.447-2.21-8.914 2.903-13.389 0.393-4.476 3.265-8.961 1.107-13.445 0.131v0.659c4.334 0.081 8.661 0.997 12.973-0.279 4.313 3.557 8.611 2.978 12.89-0.425 4.279-7.231 8.538 0.109 12.771-0.571 4.233-4.822 8.44 2.269 12.615-0.717 4.175-5.501 8.319-4.441 12.424-0.863 4.106 0.673 8.173-7.141 12.198-1.008 4.024-0.588 8.004-1.878 11.935-1.154 3.93-5.248 7.811-2.997 11.636-1.299 3.825-4.622 7.594 4.545 11.302-1.445 3.708-5.438 7.353-1.823 10.932-1.59 3.578-2.709 7.089-3.066 10.526-1.735 2.363 2.244 4.691-1.075 6.982-1.277 2.291 1.85 4.546 1.789 6.762-1.346 2.216 0.228 4.393 5.607 6.53-0.622 2.137-0.631 4.232 3.19 6.286-2.275 2.053 3.21 4.064-1.779 6.03-3.042 1.966 2.645 3.888-2.234 5.763-0.128 1.875-0.258 3.704 0.634 5.484-1.808 1.78 0.283 3.512-1.754 5.194-1.635 1.682-5.073 3.313-4.622 4.892-3.257 1.579 0.783 3.106-6.354 4.578-0.459 1.473-1.252 2.891 1.958 4.253-1.374 1.362-0.759 2.668 3.524 3.916-2.614 1.248-0.638 2.438 2.237 3.568-2.371 1.13-0.036 2.2-5.908 3.207-1.89 1.008-2.061 1.953-7.913 2.835-4.988 0.882-5.537 1.7-1.954 2.452 0.455 1.504 2.556 2.745-0.106 3.706-4.805 0.279 1.567 0.544 2.209 0.794 1.642 0.25-0.567 0.486-2.343 0.707-5.614 0.443 1.534 0.829-0.24 1.159-2.631 0.33 1.174 0.605 3.688 0.826-4.151 0.221 3.413 1.037-6.406 0.501-4.1 0.198-2.374 5.932-6.581 0.131-5.682 5.154-0.124 0.16-2.443 0.053 1.396 3.564-4.264-3.657-3.334-0.024-2.49-0.687 0.845-2.525 1.605-0.1-2.997 1.062-3.381-4.507-7.689-0.175-5.967-0.221-3.453 3.58-5.538-0.115-5.787 1.71-0.249-4.498 1.338-0.133 5.23-10.155 0.269-3.713-2.117-0.321-3.958 3.422-1.841 1.29-3.136-0.393-0.686 0.089-4.267 1.332 1.476-0.996-5.779 0.612 3.509 7.214 2.643-0.602 1.527-0.007-0.598-5.026-4.286-0.326-7.003-5.819-2.718-2.435-4.465-0.343-1.181 6.21-4.351 0.486-6.248-0.608-5.27 0.185 2.108 3.055-5.443-0.654-0.071 3.379 2.52 1.396 1.183-0.698-0.853-8.5-2.036 2.033-4.771-0.743-5.047 0.752-1.316 4.087-8.068-1.616-5.446 1.055-3.98-3.211-3.273-0.872-2.739 6.849 0.534-0.529 0.896-0.914-3.776 1.83-4.924 0.609-4.957-0.955-3.595-3.311 1.044-1.442-1.898-0.995-3.471-3.746 1.749-0.639-5.779-2.11-5.542 1.192-3.366-1.684-4.692-1.113-5.345 1.048-0.653-1.227-0.632-1.151-1.304 0.562 0.055 0.166-1.836-1.189-3.612 1.14-1.776 0.162-3.437-1.226-2.92 4.734-1.316 0.719-2.639-1.262-3.927-6.032-1.288 3.936-2.54-1.298-3.717-2.72-3.558-0.516-4.365-2.7-6.037-2.725 0.427-2.684-1.236-2.835-3.938-3.211-1.351 2.872-2.961-1.467-4.7-1.054-1.739-2.64-3.605-1.499-5.469-7.291 0.002-3.171-4.714-3.091-4.859-2.135-3.136-1.832-2.912-1.591-3.216 6.175-0.304 2.523-1.136-1.62-6.384 4.316-0.13-3.879-1.681-1.649-3.443-2.412-1.762 0.509-3.736-1.678-4.711-0.98-3.864-3.161-4.593-1.705-4.815 0.477-0.221 1.984 0.065-1.732-1.77-0.059-3.579 4.055-3.671-1.759-3.754 4.106-0.083-3.499-0.156-1.785-3.697-3.292-3.775-3.443-6.211-1.81-7.421-3.114-1.211 3.315-1.196-1.834-0.073-3.719 0.209-5-0.9-2.233-2.636 3.487-1.736-0.404-4.099-2.266-6.4-3.169-1.405-6.522-3.129-2.299-4.774-2.233-1.645-3.739-3.209-2.33-4.294-1.699-3.355-6.575-5.639-2.36-7.077-0.533-1.439 3.492-2.032-2.39-2.007 3.594 0.486 0.875-1.253-2.418-3.379-2.6-2.126-2.144-4.64-2.445-5.706-3.06-1.86-3.428-3.997-2.471-5.735-3.777-1.737 2.456-3.074-2.49-3.334z" fill="#E8DABF" p-id="1026"></path></svg>